STARTFONT 2.1
FONT -kiedtl-cursed-medium-r-normal--18-180-75-75-C-90-ISO10646-1
SIZE 18 75 75
FONTBOUNDINGBOX 9 18 0 -3
STARTPROPERTIES 19
FONTNAME_REGISTRY ""
FOUNDRY "kiedtl"
FAMILY_NAME "cursed"
WEIGHT_NAME "medium"
SLANT "r"
SETWIDTH_NAME "normal"
ADD_STYLE_NAME ""
PIXEL_SIZE 18
POINT_SIZE 180
RESOLUTION_X 75
RESOLUTION_Y 75
SPACING "C"
AVERAGE_WIDTH 90
CHARSET_REGISTRY "ISO10646"
CHARSET_ENCODING "1"
DESTINATION 1
FONT_ASCENT 15
FONT_DESCENT 3
_GBDFED_INFO "Edited with gbdfed 1.6."
ENDPROPERTIES
CHARS 626
STARTCHAR char0
ENCODING 0
SWIDTH 480 0
DWIDTH 9 0
BBX 9 18 0 -3
BITMAP
0000
0000
0000
0000
0000
6B00
4100
0000
4100
4100
4100
0000
4100
6B00
0000
0000
0000
0000
ENDCHAR
STARTCHAR char0
ENCODING 1
SWIDTH 480 0
DWIDTH 9 0
BBX 9 18 0 -3
BITMAP
0000
0000
0000
0000
0000
6B00
4100
0000
4100
4100
4100
0000
4100
6B00
0000
0000
0000
0000
ENDCHAR
STARTCHAR char0
ENCODING 2
SWIDTH 480 0
DWIDTH 9 0
BBX 9 18 0 -3
BITMAP
0000
0000
0000
0000
0000
6B00
4100
0000
4100
4100
4100
0000
4100
6B00
0000
0000
0000
0000
ENDCHAR
STARTCHAR char0
ENCODING 3
SWIDTH 480 0
DWIDTH 9 0
BBX 9 18 0 -3
BITMAP
0000
0000
0000
0000
0000
6B00
4100
0000
4100
4100
4100
0000
4100
6B00
0000
0000
0000
0000
ENDCHAR
STARTCHAR char0
ENCODING 4
SWIDTH 480 0
DWIDTH 9 0
BBX 9 18 0 -3
BITMAP
0000
0000
0000
0000
0000
6B00
4100
0000
4100
4100
4100
0000
4100
6B00
0000
0000
0000
0000
ENDCHAR
STARTCHAR char0
ENCODING 5
SWIDTH 480 0
DWIDTH 9 0
BBX 9 18 0 -3
BITMAP
0000
0000
0000
0000
0000
6B00
4100
0000
4100
4100
4100
0000
4100
6B00
0000
0000
0000
0000
ENDCHAR
STARTCHAR char0
ENCODING 6
SWIDTH 480 0
DWIDTH 9 0
BBX 9 18 0 -3
BITMAP
0000
0000
0000
0000
0000
6B00
4100
0000
4100
4100
4100
0000
4100
6B00
0000
0000
0000
0000
ENDCHAR
STARTCHAR char0
ENCODING 7
SWIDTH 480 0
DWIDTH 9 0
BBX 9 18 0 -3
BITMAP
0000
0000
0000
0000
0000
6B00
4100
0000
4100
4100
4100
0000
4100
6B00
0000
0000
0000
0000
ENDCHAR
STARTCHAR char0
ENCODING 8
SWIDTH 480 0
DWIDTH 9 0
BBX 9 18 0 -3
BITMAP
0000
0000
0000
0000
0000
6B00
4100
0000
4100
4100
4100
0000
4100
6B00
0000
0000
0000
0000
ENDCHAR
STARTCHAR char0
ENCODING 9
SWIDTH 480 0
DWIDTH 9 0
BBX 9 18 0 -3
BITMAP
0000
0000
0000
0000
0000
6B00
4100
0000
4100
4100
4100
0000
4100
6B00
0000
0000
0000
0000
ENDCHAR
STARTCHAR char0
ENCODING 10
SWIDTH 480 0
DWIDTH 9 0
BBX 9 18 0 -3
BITMAP
0000
0000
0000
0000
0000
6B00
4100
0000
4100
4100
4100
0000
4100
6B00
0000
0000
0000
0000
ENDCHAR
STARTCHAR char0
ENCODING 11
SWIDTH 480 0
DWIDTH 9 0
BBX 9 18 0 -3
BITMAP
0000
0000
0000
0000
0000
6B00
4100
0000
4100
4100
4100
0000
4100
6B00
0000
0000
0000
0000
ENDCHAR
STARTCHAR char0
ENCODING 12
SWIDTH 480 0
DWIDTH 9 0
BBX 9 18 0 -3
BITMAP
0000
0000
0000
0000
0000
6B00
4100
0000
4100
4100
4100
0000
4100
6B00
0000
0000
0000
0000
ENDCHAR
STARTCHAR char0
ENCODING 13
SWIDTH 480 0
DWIDTH 9 0
BBX 9 18 0 -3
BITMAP
0000
0000
0000
0000
0000
6B00
4100
0000
4100
4100
4100
0000
4100
6B00
0000
0000
0000
0000
ENDCHAR
STARTCHAR char0
ENCODING 14
SWIDTH 480 0
DWIDTH 9 0
BBX 9 18 0 -3
BITMAP
0000
0000
0000
0000
0000
6B00
4100
0000
4100
4100
4100
0000
4100
6B00
0000
0000
0000
0000
ENDCHAR
STARTCHAR char0
ENCODING 15
SWIDTH 480 0
DWIDTH 9 0
BBX 9 18 0 -3
BITMAP
0000
0000
0000
0000
0000
6B00
4100
0000
4100
4100
4100
0000
4100
6B00
0000
0000
0000
0000
ENDCHAR
STARTCHAR char0
ENCODING 16
SWIDTH 480 0
DWIDTH 9 0
BBX 9 18 0 -3
BITMAP
0000
0000
0000
0000
0000
6B00
4100
0000
4100
4100
4100
0000
4100
6B00
0000
0000
0000
0000
ENDCHAR
STARTCHAR char0
ENCODING 17
SWIDTH 480 0
DWIDTH 9 0
BBX 9 18 0 -3
BITMAP
0000
0000
0000
0000
0000
6B00
4100
0000
4100
4100
4100
0000
4100
6B00
0000
0000
0000
0000
ENDCHAR
STARTCHAR char0
ENCODING 18
SWIDTH 480 0
DWIDTH 9 0
BBX 9 18 0 -3
BITMAP
0000
0000
0000
0000
0000
6B00
4100
0000
4100
4100
4100
0000
4100
6B00
0000
0000
0000
0000
ENDCHAR
STARTCHAR char0
ENCODING 19
SWIDTH 480 0
DWIDTH 9 0
BBX 9 18 0 -3
BITMAP
0000
0000
0000
0000
0000
6B00
4100
0000
4100
4100
4100
0000
4100
6B00
0000
0000
0000
0000
ENDCHAR
STARTCHAR char0
ENCODING 20
SWIDTH 480 0
DWIDTH 9 0
BBX 9 18 0 -3
BITMAP
0000
0000
0000
0000
0000
6B00
4100
0000
4100
4100
4100
0000
4100
6B00
0000
0000
0000
0000
ENDCHAR
STARTCHAR char0
ENCODING 21
SWIDTH 480 0
DWIDTH 9 0
BBX 9 18 0 -3
BITMAP
0000
0000
0000
0000
0000
6B00
4100
0000
4100
4100
4100
0000
4100
6B00
0000
0000
0000
0000
ENDCHAR
STARTCHAR char0
ENCODING 22
SWIDTH 480 0
DWIDTH 9 0
BBX 9 18 0 -3
BITMAP
0000
0000
0000
0000
0000
6B00
4100
0000
4100
4100
4100
0000
4100
6B00
0000
0000
0000
0000
ENDCHAR
STARTCHAR char0
ENCODING 23
SWIDTH 480 0
DWIDTH 9 0
BBX 9 18 0 -3
BITMAP
0000
0000
0000
0000
0000
6B00
4100
0000
4100
4100
4100
0000
4100
6B00
0000
0000
0000
0000
ENDCHAR
STARTCHAR char0
ENCODING 24
SWIDTH 480 0
DWIDTH 9 0
BBX 9 18 0 -3
BITMAP
0000
0000
0000
0000
0000
6B00
4100
0000
4100
4100
4100
0000
4100
6B00
0000
0000
0000
0000
ENDCHAR
STARTCHAR char0
ENCODING 25
SWIDTH 480 0
DWIDTH 9 0
BBX 9 18 0 -3
BITMAP
0000
0000
0000
0000
0000
6B00
4100
0000
4100
4100
4100
0000
4100
6B00
0000
0000
0000
0000
ENDCHAR
STARTCHAR char0
ENCODING 26
SWIDTH 480 0
DWIDTH 9 0
BBX 9 18 0 -3
BITMAP
0000
0000
0000
0000
0000
6B00
4100
0000
4100
4100
4100
0000
4100
6B00
0000
0000
0000
0000
ENDCHAR
STARTCHAR char0
ENCODING 27
SWIDTH 480 0
DWIDTH 9 0
BBX 9 18 0 -3
BITMAP
0000
0000
0000
0000
0000
6B00
4100
0000
4100
4100
4100
0000
4100
6B00
0000
0000
0000
0000
ENDCHAR
STARTCHAR char0
ENCODING 28
SWIDTH 480 0
DWIDTH 9 0
BBX 9 18 0 -3
BITMAP
0000
0000
0000
0000
0000
6B00
4100
0000
4100
4100
4100
0000
4100
6B00
0000
0000
0000
0000
ENDCHAR
STARTCHAR char0
ENCODING 29
SWIDTH 480 0
DWIDTH 9 0
BBX 9 18 0 -3
BITMAP
0000
0000
0000
0000
0000
6B00
4100
0000
4100
4100
4100
0000
4100
6B00
0000
0000
0000
0000
ENDCHAR
STARTCHAR char0
ENCODING 30
SWIDTH 480 0
DWIDTH 9 0
BBX 9 18 0 -3
BITMAP
0000
0000
0000
0000
0000
6B00
4100
0000
4100
4100
4100
0000
4100
6B00
0000
0000
0000
0000
ENDCHAR
STARTCHAR char0
ENCODING 31
SWIDTH 480 0
DWIDTH 9 0
BBX 9 18 0 -3
BITMAP
0000
0000
0000
0000
0000
6B00
4100
0000
4100
4100
4100
0000
4100
6B00
0000
0000
0000
0000
ENDCHAR
STARTCHAR char0
ENCODING 32
SWIDTH 480 0
DWIDTH 9 0
BBX 9 18 0 -3
BITMAP
0000
0000
0000
0000
0000
0000
0000
0000
0000
0000
0000
0000
0000
0000
0000
0000
0000
0000
ENDCHAR
STARTCHAR U+0021
ENCODING 33
SWIDTH 480 0
DWIDTH 9 0
BBX 9 18 0 -3
BITMAP
0000
0000
0000
0000
0C00
0C00
0C00
0C00
0C00
0C00
0C00
0C00
0000
0C00
0C00
0000
0000
0000
ENDCHAR
STARTCHAR U+0022
ENCODING 34
SWIDTH 480 0
DWIDTH 9 0
BBX 9 18 0 -3
BITMAP
0000
0000
0000
1200
1200
1200
1200
0000
0000
0000
0000
0000
0000
0000
0000
0000
0000
0000
ENDCHAR
STARTCHAR U+0023
ENCODING 35
SWIDTH 480 0
DWIDTH 9 0
BBX 9 18 0 -3
BITMAP
0000
0000
0000
0000
3600
3600
FF80
3600
3600
3600
3600
3600
FF80
3600
3600
0000
0000
0000
ENDCHAR
STARTCHAR U+0024
ENCODING 36
SWIDTH 480 0
DWIDTH 9 0
BBX 9 18 0 -3
BITMAP
0000
0800
0800
3E00
6300
6000
6000
6000
3E00
0300
0300
0300
6300
3E00
0800
0800
0000
0000
ENDCHAR
STARTCHAR U+0025
ENCODING 37
SWIDTH 480 0
DWIDTH 9 0
BBX 9 18 0 -3
BITMAP
0000
0000
0000
0000
0000
C100
C300
C600
0C00
1800
3000
6300
C300
8300
0000
0000
0000
0000
ENDCHAR
STARTCHAR U+0026
ENCODING 38
SWIDTH 480 0
DWIDTH 9 0
BBX 9 18 0 -3
BITMAP
0000
0000
0000
0000
7C00
C000
C000
C000
C000
7F00
C600
C600
C600
C700
7900
0000
0000
0000
ENDCHAR
STARTCHAR U+0027
ENCODING 39
SWIDTH 480 0
DWIDTH 9 0
BBX 9 18 0 -3
BITMAP
0000
0000
0000
0800
0800
0800
0800
0000
0000
0000
0000
0000
0000
0000
0000
0000
0000
0000
ENDCHAR
STARTCHAR U+0028
ENCODING 40
SWIDTH 480 0
DWIDTH 9 0
BBX 9 18 0 -3
BITMAP
0000
0000
0700
0800
1000
3000
3000
3000
3000
3000
3000
3000
3000
3000
1000
0800
0700
0000
ENDCHAR
STARTCHAR U+0029
ENCODING 41
SWIDTH 480 0
DWIDTH 9 0
BBX 9 18 0 -3
BITMAP
0000
0000
7000
0800
0400
0600
0600
0600
0600
0600
0600
0600
0600
0600
0400
0800
7000
0000
ENDCHAR
STARTCHAR U+002a
ENCODING 42
SWIDTH 480 0
DWIDTH 9 0
BBX 9 18 0 -3
BITMAP
0000
0000
0000
0000
0000
0000
0800
4900
2A00
1C00
2A00
4900
0800
0000
0000
0000
0000
0000
ENDCHAR
STARTCHAR U+002b
ENCODING 43
SWIDTH 480 0
DWIDTH 9 0
BBX 9 18 0 -3
BITMAP
0000
0000
0000
0000
0000
0000
0800
0800
0800
7F00
0800
0800
0800
0000
0000
0000
0000
0000
ENDCHAR
STARTCHAR U+002c
ENCODING 44
SWIDTH 480 0
DWIDTH 9 0
BBX 9 18 0 -3
BITMAP
0000
0000
0000
0000
0000
0000
0000
0000
0000
0000
0000
0000
0000
0C00
0C00
0400
0800
0000
ENDCHAR
STARTCHAR U+002d
ENCODING 45
SWIDTH 480 0
DWIDTH 9 0
BBX 9 18 0 -3
BITMAP
0000
0000
0000
0000
0000
0000
0000
0000
0000
0000
7F00
0000
0000
0000
0000
0000
0000
0000
ENDCHAR
STARTCHAR U+002e
ENCODING 46
SWIDTH 480 0
DWIDTH 9 0
BBX 9 18 0 -3
BITMAP
0000
0000
0000
0000
0000
0000
0000
0000
0000
0000
0000
0000
0000
0C00
0C00
0000
0000
0000
ENDCHAR
STARTCHAR U+002f
ENCODING 47
SWIDTH 480 0
DWIDTH 9 0
BBX 9 18 0 -3
BITMAP
0000
0000
0000
0100
0100
0200
0200
0400
0400
0800
0800
1000
1000
2000
2000
0000
0000
0000
ENDCHAR
STARTCHAR U+0030
ENCODING 48
SWIDTH 480 0
DWIDTH 9 0
BBX 9 18 0 -3
BITMAP
0000
0000
0000
0000
3E00
6300
6300
6300
6700
6B00
7300
6300
6300
6300
3E00
0000
0000
0000
ENDCHAR
STARTCHAR U+0031
ENCODING 49
SWIDTH 480 0
DWIDTH 9 0
BBX 9 18 0 -3
BITMAP
0000
0000
0000
0000
3C00
3C00
0C00
0C00
0C00
0C00
0C00
0C00
0C00
0C00
0C00
0000
0000
0000
ENDCHAR
STARTCHAR U+0032
ENCODING 50
SWIDTH 480 0
DWIDTH 9 0
BBX 9 18 0 -3
BITMAP
0000
0000
0000
0000
3E00
4300
0300
0300
0300
0600
0C00
1800
3000
6000
7F00
0000
0000
0000
ENDCHAR
STARTCHAR U+0033
ENCODING 51
SWIDTH 480 0
DWIDTH 9 0
BBX 9 18 0 -3
BITMAP
0000
0000
0000
0000
7F00
0600
0C00
1800
3E00
0300
0300
0300
0300
4200
3C00
0000
0000
0000
ENDCHAR
STARTCHAR U+0034
ENCODING 52
SWIDTH 480 0
DWIDTH 9 0
BBX 9 18 0 -3
BITMAP
0000
0000
0000
0000
0600
0E00
1600
2600
4600
4600
7F00
0600
0600
0600
0600
0000
0000
0000
ENDCHAR
STARTCHAR U+0035
ENCODING 53
SWIDTH 480 0
DWIDTH 9 0
BBX 9 18 0 -3
BITMAP
0000
0000
0000
0000
7F00
6000
6000
7E00
0300
0300
0300
0300
0300
4200
3C00
0000
0000
0000
ENDCHAR
STARTCHAR U+0036
ENCODING 54
SWIDTH 480 0
DWIDTH 9 0
BBX 9 18 0 -3
BITMAP
0000
0000
0000
0000
1E00
3000
6000
7E00
6300
6300
6300
6300
6300
6300
3E00
0000
0000
0000
ENDCHAR
STARTCHAR U+0037
ENCODING 55
SWIDTH 480 0
DWIDTH 9 0
BBX 9 18 0 -3
BITMAP
0000
0000
0000
0000
7E00
0600
0600
0600
0C00
1800
1800
1800
1800
1800
1800
0000
0000
0000
ENDCHAR
STARTCHAR U+0038
ENCODING 56
SWIDTH 480 0
DWIDTH 9 0
BBX 9 18 0 -3
BITMAP
0000
0000
0000
0000
3C00
6600
6600
6600
6600
3C00
6600
6600
6600
6600
3C00
0000
0000
0000
ENDCHAR
STARTCHAR U+0039
ENCODING 57
SWIDTH 480 0
DWIDTH 9 0
BBX 9 18 0 -3
BITMAP
0000
0000
0000
0000
3E00
6300
6300
6300
6300
6300
3F00
0300
0600
0C00
3800
0000
0000
0000
ENDCHAR
STARTCHAR U+003a
ENCODING 58
SWIDTH 480 0
DWIDTH 9 0
BBX 9 18 0 -3
BITMAP
0000
0000
0000
0000
0000
0000
0000
0C00
0C00
0000
0000
0000
0000
0C00
0C00
0000
0000
0000
ENDCHAR
STARTCHAR U+003b
ENCODING 59
SWIDTH 480 0
DWIDTH 9 0
BBX 9 18 0 -3
BITMAP
0000
0000
0000
0000
0000
0000
0000
0C00
0C00
0C00
0000
0000
0000
0C00
0C00
0400
0800
0000
ENDCHAR
STARTCHAR U+003c
ENCODING 60
SWIDTH 480 0
DWIDTH 9 0
BBX 9 18 0 -3
BITMAP
0000
0000
0000
0000
0000
0600
0C00
1800
3000
6000
3000
1800
0C00
0600
0000
0000
0000
0000
ENDCHAR
STARTCHAR U+003d
ENCODING 61
SWIDTH 480 0
DWIDTH 9 0
BBX 9 18 0 -3
BITMAP
0000
0000
0000
0000
0000
0000
0000
0000
7F00
0000
0000
0000
7F00
0000
0000
0000
0000
0000
ENDCHAR
STARTCHAR U+003c
ENCODING 62
SWIDTH 480 0
DWIDTH 9 0
BBX 9 18 0 -3
BITMAP
0000
0000
0000
0000
0000
3000
1800
0C00
0600
0300
0600
0C00
1800
3000
0000
0000
0000
0000
ENDCHAR
STARTCHAR U+003f
ENCODING 63
SWIDTH 480 0
DWIDTH 9 0
BBX 9 18 0 -3
BITMAP
0000
0000
0000
0000
3E00
4300
0300
0300
0600
0C00
1800
1800
0000
1800
1800
0000
0000
0000
ENDCHAR
STARTCHAR U+0040
ENCODING 64
SWIDTH 480 0
DWIDTH 9 0
BBX 9 18 0 -3
BITMAP
0000
0000
0000
0000
3E00
6100
6100
6F00
6D00
6D00
6D00
6F00
6000
6100
3E00
0000
0000
0000
ENDCHAR
STARTCHAR U+0041
ENCODING 65
SWIDTH 480 0
DWIDTH 9 0
BBX 9 18 0 -3
BITMAP
0000
0000
0000
0000
3E00
6300
6300
6300
6300
7F00
6300
6300
6300
6300
6300
0000
0000
0000
ENDCHAR
STARTCHAR U+0042
ENCODING 66
SWIDTH 480 0
DWIDTH 9 0
BBX 9 18 0 -3
BITMAP
0000
0000
0000
0000
7E00
6300
6300
6300
6300
7E00
6300
6300
6300
6300
7E00
0000
0000
0000
ENDCHAR
STARTCHAR U+0043
ENCODING 67
SWIDTH 480 0
DWIDTH 9 0
BBX 9 18 0 -3
BITMAP
0000
0000
0000
0000
3E00
6100
6000
6000
6000
6000
6000
6000
6000
6100
3E00
0000
0000
0000
ENDCHAR
STARTCHAR U+0044
ENCODING 68
SWIDTH 480 0
DWIDTH 9 0
BBX 9 18 0 -3
BITMAP
0000
0000
0000
0000
7E00
6300
6300
6300
6300
6300
6300
6300
6300
6300
7E00
0000
0000
0000
ENDCHAR
STARTCHAR U+0045
ENCODING 69
SWIDTH 480 0
DWIDTH 9 0
BBX 9 18 0 -3
BITMAP
0000
0000
0000
0000
7F00
6000
6000
6000
6000
7C00
6000
6000
6000
6000
7F00
0000
0000
0000
ENDCHAR
STARTCHAR U+0046
ENCODING 70
SWIDTH 480 0
DWIDTH 9 0
BBX 9 18 0 -3
BITMAP
0000
0000
0000
0000
7F00
6000
6000
6000
6000
7C00
6000
6000
6000
6000
6000
0000
0000
0000
ENDCHAR
STARTCHAR U+0047
ENCODING 71
SWIDTH 480 0
DWIDTH 9 0
BBX 9 18 0 -3
BITMAP
0000
0000
0000
0000
3E00
6300
6000
6000
6000
6700
6300
6300
6300
6300
3E00
0000
0000
0000
ENDCHAR
STARTCHAR U+0048
ENCODING 72
SWIDTH 480 0
DWIDTH 9 0
BBX 9 18 0 -3
BITMAP
0000
0000
0000
0000
6300
6300
6300
6300
6300
7F00
6300
6300
6300
6300
6300
0000
0000
0000
ENDCHAR
STARTCHAR U+0049
ENCODING 73
SWIDTH 480 0
DWIDTH 9 0
BBX 9 18 0 -3
BITMAP
0000
0000
0000
0000
7E00
1800
1800
1800
1800
1800
1800
1800
1800
1800
7E00
0000
0000
0000
ENDCHAR
STARTCHAR U+004a
ENCODING 74
SWIDTH 480 0
DWIDTH 9 0
BBX 9 18 0 -3
BITMAP
0000
0000
0000
0000
0300
0300
0300
0300
0300
0300
6300
6300
6300
6300
3E00
0000
0000
0000
ENDCHAR
STARTCHAR U+004b
ENCODING 75
SWIDTH 480 0
DWIDTH 9 0
BBX 9 18 0 -3
BITMAP
0000
0000
0000
0000
6100
6300
6600
6C00
7800
7000
7800
6C00
6600
6300
6100
0000
0000
0000
ENDCHAR
STARTCHAR U+004c
ENCODING 76
SWIDTH 480 0
DWIDTH 9 0
BBX 9 18 0 -3
BITMAP
0000
0000
0000
0000
6000
6000
6000
6000
6000
6000
6000
6000
6000
6000
7F00
0000
0000
0000
ENDCHAR
STARTCHAR U+004d
ENCODING 77
SWIDTH 480 0
DWIDTH 9 0
BBX 9 18 0 -3
BITMAP
0000
0000
0000
0000
C300
C300
E700
FF00
DB00
DB00
C300
C300
C300
C300
C300
0000
0000
0000
ENDCHAR
STARTCHAR U+004e
ENCODING 78
SWIDTH 480 0
DWIDTH 9 0
BBX 9 18 0 -3
BITMAP
0000
0000
0000
0000
4100
4100
6100
7100
7900
5D00
4F00
4700
4300
4100
4100
0000
0000
0000
ENDCHAR
STARTCHAR U+004f
ENCODING 79
SWIDTH 480 0
DWIDTH 9 0
BBX 9 18 0 -3
BITMAP
0000
0000
0000
0000
3E00
6300
6300
6300
6300
6300
6300
6300
6300
6300
3E00
0000
0000
0000
ENDCHAR
STARTCHAR U+0050
ENCODING 80
SWIDTH 480 0
DWIDTH 9 0
BBX 9 18 0 -3
BITMAP
0000
0000
0000
0000
7E00
6300
6300
6300
6300
7E00
6000
6000
6000
6000
6000
0000
0000
0000
ENDCHAR
STARTCHAR U+0051
ENCODING 81
SWIDTH 480 0
DWIDTH 9 0
BBX 9 18 0 -3
BITMAP
0000
0000
0000
0000
3E00
6300
6300
6300
6300
6300
6300
6300
6300
6300
3E00
0200
0300
0000
ENDCHAR
STARTCHAR U+0052
ENCODING 82
SWIDTH 480 0
DWIDTH 9 0
BBX 9 18 0 -3
BITMAP
0000
0000
0000
0000
7E00
6300
6300
6300
6300
6300
7E00
6300
6300
6300
6300
0000
0000
0000
ENDCHAR
STARTCHAR U+0053
ENCODING 83
SWIDTH 480 0
DWIDTH 9 0
BBX 9 18 0 -3
BITMAP
0000
0000
0000
0000
3E00
6300
6000
6000
6000
3E00
0300
0300
0300
6300
3E00
0000
0000
0000
ENDCHAR
STARTCHAR U+0054
ENCODING 84
SWIDTH 480 0
DWIDTH 9 0
BBX 9 18 0 -3
BITMAP
0000
0000
0000
0000
7F80
0C00
0C00
0C00
0C00
0C00
0C00
0C00
0C00
0C00
0C00
0000
0000
0000
ENDCHAR
STARTCHAR U+0055
ENCODING 85
SWIDTH 480 0
DWIDTH 9 0
BBX 9 18 0 -3
BITMAP
0000
0000
0000
0000
6300
6300
6300
6300
6300
6300
6300
6300
6300
6300
3E00
0000
0000
0000
ENDCHAR
STARTCHAR U+0056
ENCODING 86
SWIDTH 480 0
DWIDTH 9 0
BBX 9 18 0 -3
BITMAP
0000
0000
0000
0000
6300
6300
6300
6300
6300
6300
6300
6300
6300
6600
7C00
0000
0000
0000
ENDCHAR
STARTCHAR U+0057
ENCODING 87
SWIDTH 480 0
DWIDTH 9 0
BBX 9 18 0 -3
BITMAP
0000
0000
0000
0000
C300
C300
C300
C300
DB00
DB00
DB00
DB00
DB00
DB00
7E00
0000
0000
0000
ENDCHAR
STARTCHAR U+0058
ENCODING 88
SWIDTH 480 0
DWIDTH 9 0
BBX 9 18 0 -3
BITMAP
0000
0000
0000
0000
6300
6300
6300
6300
6300
3E00
6300
6300
6300
6300
6300
0000
0000
0000
ENDCHAR
STARTCHAR U+0059
ENCODING 89
SWIDTH 480 0
DWIDTH 9 0
BBX 9 18 0 -3
BITMAP
0000
0000
0000
0000
6600
6600
6600
6600
6600
3C00
1800
1800
1800
1800
1800
0000
0000
0000
ENDCHAR
STARTCHAR U+005a
ENCODING 90
SWIDTH 480 0
DWIDTH 9 0
BBX 9 18 0 -3
BITMAP
0000
0000
0000
0000
7E00
0600
0600
0E00
1C00
3800
7000
6000
6000
6000
7E00
0000
0000
0000
ENDCHAR
STARTCHAR U+005b
ENCODING 91
SWIDTH 480 0
DWIDTH 9 0
BBX 9 18 0 -3
BITMAP
0000
0000
3F00
3000
3000
3000
3000
3000
3000
3000
3000
3000
3000
3000
3000
3000
3F00
0000
ENDCHAR
STARTCHAR U+005c
ENCODING 92
SWIDTH 480 0
DWIDTH 9 0
BBX 9 18 0 -3
BITMAP
0000
0000
0000
2000
2000
1000
1000
0800
0800
0400
0400
0200
0200
0100
0100
0000
0000
0000
ENDCHAR
STARTCHAR U+005d
ENCODING 93
SWIDTH 480 0
DWIDTH 9 0
BBX 9 18 0 -3
BITMAP
0000
0000
7E00
0600
0600
0600
0600
0600
0600
0600
0600
0600
0600
0600
0600
0600
7E00
0000
ENDCHAR
STARTCHAR U+005e
ENCODING 94
SWIDTH 480 0
DWIDTH 9 0
BBX 9 18 0 -3
BITMAP
0000
0000
0800
1C00
3600
6300
4100
0000
0000
0000
0000
0000
0000
0000
0000
0000
0000
0000
ENDCHAR
STARTCHAR U+005f
ENCODING 95
SWIDTH 480 0
DWIDTH 9 0
BBX 9 18 0 -3
BITMAP
0000
0000
0000
0000
0000
0000
0000
0000
0000
0000
0000
0000
0000
0000
FF80
0000
0000
0000
ENDCHAR
STARTCHAR U+0060
ENCODING 96
SWIDTH 480 0
DWIDTH 9 0
BBX 9 18 0 -3
BITMAP
0000
0000
2000
3000
1800
0C00
0400
0000
0000
0000
0000
0000
0000
0000
0000
0000
0000
0000
ENDCHAR
STARTCHAR U+0061
ENCODING 97
SWIDTH 480 0
DWIDTH 9 0
BBX 9 18 0 -3
BITMAP
0000
0000
0000
0000
0000
0000
0000
3E00
4300
3F00
6300
6300
6300
6300
3F00
0000
0000
0000
ENDCHAR
STARTCHAR U+0062
ENCODING 98
SWIDTH 480 0
DWIDTH 9 0
BBX 9 18 0 -3
BITMAP
0000
0000
0000
0000
0000
6000
6000
7E00
6300
6300
6300
6300
6300
6300
7E00
0000
0000
0000
ENDCHAR
STARTCHAR U+0063
ENCODING 99
SWIDTH 480 0
DWIDTH 9 0
BBX 9 18 0 -3
BITMAP
0000
0000
0000
0000
0000
0000
0000
3E00
6100
6000
6000
6000
6000
6100
3E00
0000
0000
0000
ENDCHAR
STARTCHAR U+0064
ENCODING 100
SWIDTH 480 0
DWIDTH 9 0
BBX 9 18 0 -3
BITMAP
0000
0000
0000
0000
0000
0300
0300
3F00
6300
6300
6300
6300
6300
6300
3F00
0000
0000
0000
ENDCHAR
STARTCHAR U+0065
ENCODING 101
SWIDTH 480 0
DWIDTH 9 0
BBX 9 18 0 -3
BITMAP
0000
0000
0000
0000
0000
0000
0000
3E00
6300
6300
6300
7F00
6000
6100
3E00
0000
0000
0000
ENDCHAR
STARTCHAR U+0066
ENCODING 102
SWIDTH 480 0
DWIDTH 9 0
BBX 9 18 0 -3
BITMAP
0000
0000
0000
0000
0000
3E00
6100
6100
6000
6000
7C00
6000
6000
6000
6000
0000
0000
0000
ENDCHAR
STARTCHAR U+0067
ENCODING 103
SWIDTH 480 0
DWIDTH 9 0
BBX 9 18 0 -3
BITMAP
0000
0000
0000
0000
0000
0000
0000
3E00
6300
6300
6300
6300
6300
6300
3F00
0300
4300
3E00
ENDCHAR
STARTCHAR U+0068
ENCODING 104
SWIDTH 480 0
DWIDTH 9 0
BBX 9 18 0 -3
BITMAP
0000
0000
0000
0000
0000
6000
6000
7E00
6300
6300
6300
6300
6300
6300
6300
0000
0000
0000
ENDCHAR
STARTCHAR U+0069
ENCODING 105
SWIDTH 480 0
DWIDTH 9 0
BBX 9 18 0 -3
BITMAP
0000
0000
0000
0000
0000
0000
0000
3800
1800
1800
1800
1800
1800
1800
0E00
0000
0000
0000
ENDCHAR
STARTCHAR U+006a
ENCODING 106
SWIDTH 480 0
DWIDTH 9 0
BBX 9 18 0 -3
BITMAP
0000
0000
0000
0000
0000
0000
0000
0F00
0300
0300
0300
0300
0300
0300
0300
0300
4300
3E00
ENDCHAR
STARTCHAR U+006b
ENCODING 107
SWIDTH 480 0
DWIDTH 9 0
BBX 9 18 0 -3
BITMAP
0000
0000
0000
0000
0000
6000
6000
6600
6C00
7800
7000
7800
6C00
6600
6300
0000
0000
0000
ENDCHAR
STARTCHAR U+006c
ENCODING 108
SWIDTH 480 0
DWIDTH 9 0
BBX 9 18 0 -3
BITMAP
0000
0000
0000
0000
0000
7800
1800
1800
1800
1800
1800
1800
1800
1800
7E00
0000
0000
0000
ENDCHAR
STARTCHAR U+006d
ENCODING 109
SWIDTH 480 0
DWIDTH 9 0
BBX 9 18 0 -3
BITMAP
0000
0000
0000
0000
0000
0000
0000
7E00
DB00
DB00
DB00
DB00
DB00
C300
C300
0000
0000
0000
ENDCHAR
STARTCHAR U+006e
ENCODING 110
SWIDTH 480 0
DWIDTH 9 0
BBX 9 18 0 -3
BITMAP
0000
0000
0000
0000
0000
0000
0000
7E00
6300
6300
6300
6300
6300
6300
6300
0000
0000
0000
ENDCHAR
STARTCHAR U+006f
ENCODING 111
SWIDTH 480 0
DWIDTH 9 0
BBX 9 18 0 -3
BITMAP
0000
0000
0000
0000
0000
0000
0000
3E00
6300
6300
6300
6300
6300
6300
3E00
0000
0000
0000
ENDCHAR
STARTCHAR U+0070
ENCODING 112
SWIDTH 480 0
DWIDTH 9 0
BBX 9 18 0 -3
BITMAP
0000
0000
0000
0000
0000
0000
0000
7E00
6300
6300
6300
6300
6300
6300
7E00
6000
6000
6000
ENDCHAR
STARTCHAR U+0071
ENCODING 113
SWIDTH 480 0
DWIDTH 9 0
BBX 9 18 0 -3
BITMAP
0000
0000
0000
0000
0000
0000
0000
3F00
6300
6300
6300
6300
6300
6300
3F00
0300
0300
0300
ENDCHAR
STARTCHAR U+0072
ENCODING 114
SWIDTH 480 0
DWIDTH 9 0
BBX 9 18 0 -3
BITMAP
0000
0000
0000
0000
0000
0000
0000
6F00
7000
6000
6000
6000
6000
6000
6000
0000
0000
0000
ENDCHAR
STARTCHAR U+0073
ENCODING 115
SWIDTH 480 0
DWIDTH 9 0
BBX 9 18 0 -3
BITMAP
0000
0000
0000
0000
0000
0000
0000
3E00
6300
6000
3E00
0300
0300
6300
3E00
0000
0000
0000
ENDCHAR
STARTCHAR U+0074
ENCODING 116
SWIDTH 480 0
DWIDTH 9 0
BBX 9 18 0 -3
BITMAP
0000
0000
0000
0000
0000
0000
0000
FF00
3000
3000
3000
3000
3000
3100
1E00
0000
0000
0000
ENDCHAR
STARTCHAR U+0075
ENCODING 117
SWIDTH 480 0
DWIDTH 9 0
BBX 9 18 0 -3
BITMAP
0000
0000
0000
0000
0000
0000
0000
6300
6300
6300
6300
6300
6300
6300
3F00
0000
0000
0000
ENDCHAR
STARTCHAR U+0076
ENCODING 118
SWIDTH 480 0
DWIDTH 9 0
BBX 9 18 0 -3
BITMAP
0000
0000
0000
0000
0000
0000
0000
6300
6300
6300
6300
6300
6300
6600
7C00
0000
0000
0000
ENDCHAR
STARTCHAR U+0077
ENCODING 119
SWIDTH 480 0
DWIDTH 9 0
BBX 9 18 0 -3
BITMAP
0000
0000
0000
0000
0000
0000
0000
C300
C300
C300
DB00
DB00
DB00
DB00
7E00
0000
0000
0000
ENDCHAR
STARTCHAR U+0078
ENCODING 120
SWIDTH 480 0
DWIDTH 9 0
BBX 9 18 0 -3
BITMAP
0000
0000
0000
0000
0000
0000
0000
6300
6300
6300
3E00
6300
6300
6300
6300
0000
0000
0000
ENDCHAR
STARTCHAR U+0079
ENCODING 121
SWIDTH 480 0
DWIDTH 9 0
BBX 9 18 0 -3
BITMAP
0000
0000
0000
0000
0000
0000
0000
6300
6300
6300
6300
6300
6300
6300
3F00
0300
4300
3E00
ENDCHAR
STARTCHAR U+007a
ENCODING 122
SWIDTH 480 0
DWIDTH 9 0
BBX 9 18 0 -3
BITMAP
0000
0000
0000
0000
0000
0000
0000
7E00
0600
0C00
1800
3000
6000
6000
7E00
0000
0000
0000
ENDCHAR
STARTCHAR U+007b
ENCODING 123
SWIDTH 480 0
DWIDTH 9 0
BBX 9 18 0 -3
BITMAP
0000
0000
0700
0C00
0C00
0C00
0C00
0C00
0C00
7C00
0C00
0C00
0C00
0C00
0C00
0C00
0700
0000
ENDCHAR
STARTCHAR U+007c
ENCODING 124
SWIDTH 480 0
DWIDTH 9 0
BBX 9 18 0 -3
BITMAP
0000
0000
1800
1800
1800
1800
1800
1800
1800
1800
1800
1800
1800
1800
1800
1800
1800
0000
ENDCHAR
STARTCHAR U+007d
ENCODING 125
SWIDTH 480 0
DWIDTH 9 0
BBX 9 18 0 -3
BITMAP
0000
0000
7000
1800
1800
1800
1800
1800
1800
1F00
1800
1800
1800
1800
1800
1800
7000
0000
ENDCHAR
STARTCHAR U+007e
ENCODING 126
SWIDTH 480 0
DWIDTH 9 0
BBX 9 18 0 -3
BITMAP
0000
0000
0000
0000
0000
0000
0000
7000
F900
9F00
0E00
0000
0000
0000
0000
0000
0000
0000
ENDCHAR
STARTCHAR char0
ENCODING 128
SWIDTH 480 0
DWIDTH 9 0
BBX 9 18 0 -3
BITMAP
0000
0000
0000
0000
0000
6B00
4100
0000
4100
4100
4100
0000
4100
6B00
0000
0000
0000
0000
ENDCHAR
STARTCHAR char0
ENCODING 129
SWIDTH 480 0
DWIDTH 9 0
BBX 9 18 0 -3
BITMAP
0000
0000
0000
0000
0000
6B00
4100
0000
4100
4100
4100
0000
4100
6B00
0000
0000
0000
0000
ENDCHAR
STARTCHAR char0
ENCODING 130
SWIDTH 480 0
DWIDTH 9 0
BBX 9 18 0 -3
BITMAP
0000
0000
0000
0000
0000
6B00
4100
0000
4100
4100
4100
0000
4100
6B00
0000
0000
0000
0000
ENDCHAR
STARTCHAR char0
ENCODING 131
SWIDTH 480 0
DWIDTH 9 0
BBX 9 18 0 -3
BITMAP
0000
0000
0000
0000
0000
6B00
4100
0000
4100
4100
4100
0000
4100
6B00
0000
0000
0000
0000
ENDCHAR
STARTCHAR char0
ENCODING 132
SWIDTH 480 0
DWIDTH 9 0
BBX 9 18 0 -3
BITMAP
0000
0000
0000
0000
0000
6B00
4100
0000
4100
4100
4100
0000
4100
6B00
0000
0000
0000
0000
ENDCHAR
STARTCHAR char0
ENCODING 133
SWIDTH 480 0
DWIDTH 9 0
BBX 9 18 0 -3
BITMAP
0000
0000
0000
0000
0000
6B00
4100
0000
4100
4100
4100
0000
4100
6B00
0000
0000
0000
0000
ENDCHAR
STARTCHAR char0
ENCODING 134
SWIDTH 480 0
DWIDTH 9 0
BBX 9 18 0 -3
BITMAP
0000
0000
0000
0000
0000
6B00
4100
0000
4100
4100
4100
0000
4100
6B00
0000
0000
0000
0000
ENDCHAR
STARTCHAR char0
ENCODING 135
SWIDTH 480 0
DWIDTH 9 0
BBX 9 18 0 -3
BITMAP
0000
0000
0000
0000
0000
6B00
4100
0000
4100
4100
4100
0000
4100
6B00
0000
0000
0000
0000
ENDCHAR
STARTCHAR char0
ENCODING 136
SWIDTH 480 0
DWIDTH 9 0
BBX 9 18 0 -3
BITMAP
0000
0000
0000
0000
0000
6B00
4100
0000
4100
4100
4100
0000
4100
6B00
0000
0000
0000
0000
ENDCHAR
STARTCHAR char0
ENCODING 137
SWIDTH 480 0
DWIDTH 9 0
BBX 9 18 0 -3
BITMAP
0000
0000
0000
0000
0000
6B00
4100
0000
4100
4100
4100
0000
4100
6B00
0000
0000
0000
0000
ENDCHAR
STARTCHAR char0
ENCODING 138
SWIDTH 480 0
DWIDTH 9 0
BBX 9 18 0 -3
BITMAP
0000
0000
0000
0000
0000
6B00
4100
0000
4100
4100
4100
0000
4100
6B00
0000
0000
0000
0000
ENDCHAR
STARTCHAR char0
ENCODING 139
SWIDTH 480 0
DWIDTH 9 0
BBX 9 18 0 -3
BITMAP
0000
0000
0000
0000
0000
6B00
4100
0000
4100
4100
4100
0000
4100
6B00
0000
0000
0000
0000
ENDCHAR
STARTCHAR char0
ENCODING 140
SWIDTH 480 0
DWIDTH 9 0
BBX 9 18 0 -3
BITMAP
0000
0000
0000
0000
0000
6B00
4100
0000
4100
4100
4100
0000
4100
6B00
0000
0000
0000
0000
ENDCHAR
STARTCHAR char0
ENCODING 141
SWIDTH 480 0
DWIDTH 9 0
BBX 9 18 0 -3
BITMAP
0000
0000
0000
0000
0000
6B00
4100
0000
4100
4100
4100
0000
4100
6B00
0000
0000
0000
0000
ENDCHAR
STARTCHAR char0
ENCODING 142
SWIDTH 480 0
DWIDTH 9 0
BBX 9 18 0 -3
BITMAP
0000
0000
0000
0000
0000
6B00
4100
0000
4100
4100
4100
0000
4100
6B00
0000
0000
0000
0000
ENDCHAR
STARTCHAR char0
ENCODING 143
SWIDTH 480 0
DWIDTH 9 0
BBX 9 18 0 -3
BITMAP
0000
0000
0000
0000
0000
6B00
4100
0000
4100
4100
4100
0000
4100
6B00
0000
0000
0000
0000
ENDCHAR
STARTCHAR char0
ENCODING 144
SWIDTH 480 0
DWIDTH 9 0
BBX 9 18 0 -3
BITMAP
0000
0000
0000
0000
0000
6B00
4100
0000
4100
4100
4100
0000
4100
6B00
0000
0000
0000
0000
ENDCHAR
STARTCHAR char0
ENCODING 145
SWIDTH 480 0
DWIDTH 9 0
BBX 9 18 0 -3
BITMAP
0000
0000
0000
0000
0000
6B00
4100
0000
4100
4100
4100
0000
4100
6B00
0000
0000
0000
0000
ENDCHAR
STARTCHAR char0
ENCODING 146
SWIDTH 480 0
DWIDTH 9 0
BBX 9 18 0 -3
BITMAP
0000
0000
0000
0000
0000
6B00
4100
0000
4100
4100
4100
0000
4100
6B00
0000
0000
0000
0000
ENDCHAR
STARTCHAR char0
ENCODING 147
SWIDTH 480 0
DWIDTH 9 0
BBX 9 18 0 -3
BITMAP
0000
0000
0000
0000
0000
6B00
4100
0000
4100
4100
4100
0000
4100
6B00
0000
0000
0000
0000
ENDCHAR
STARTCHAR char0
ENCODING 148
SWIDTH 480 0
DWIDTH 9 0
BBX 9 18 0 -3
BITMAP
0000
0000
0000
0000
0000
6B00
4100
0000
4100
4100
4100
0000
4100
6B00
0000
0000
0000
0000
ENDCHAR
STARTCHAR char0
ENCODING 149
SWIDTH 480 0
DWIDTH 9 0
BBX 9 18 0 -3
BITMAP
0000
0000
0000
0000
0000
6B00
4100
0000
4100
4100
4100
0000
4100
6B00
0000
0000
0000
0000
ENDCHAR
STARTCHAR char0
ENCODING 150
SWIDTH 480 0
DWIDTH 9 0
BBX 9 18 0 -3
BITMAP
0000
0000
0000
0000
0000
6B00
4100
0000
4100
4100
4100
0000
4100
6B00
0000
0000
0000
0000
ENDCHAR
STARTCHAR char0
ENCODING 151
SWIDTH 480 0
DWIDTH 9 0
BBX 9 18 0 -3
BITMAP
0000
0000
0000
0000
0000
6B00
4100
0000
4100
4100
4100
0000
4100
6B00
0000
0000
0000
0000
ENDCHAR
STARTCHAR char0
ENCODING 152
SWIDTH 480 0
DWIDTH 9 0
BBX 9 18 0 -3
BITMAP
0000
0000
0000
0000
0000
6B00
4100
0000
4100
4100
4100
0000
4100
6B00
0000
0000
0000
0000
ENDCHAR
STARTCHAR char0
ENCODING 153
SWIDTH 480 0
DWIDTH 9 0
BBX 9 18 0 -3
BITMAP
0000
0000
0000
0000
0000
6B00
4100
0000
4100
4100
4100
0000
4100
6B00
0000
0000
0000
0000
ENDCHAR
STARTCHAR char0
ENCODING 154
SWIDTH 480 0
DWIDTH 9 0
BBX 9 18 0 -3
BITMAP
0000
0000
0000
0000
0000
6B00
4100
0000
4100
4100
4100
0000
4100
6B00
0000
0000
0000
0000
ENDCHAR
STARTCHAR char0
ENCODING 155
SWIDTH 480 0
DWIDTH 9 0
BBX 9 18 0 -3
BITMAP
0000
0000
0000
0000
0000
6B00
4100
0000
4100
4100
4100
0000
4100
6B00
0000
0000
0000
0000
ENDCHAR
STARTCHAR char0
ENCODING 156
SWIDTH 480 0
DWIDTH 9 0
BBX 9 18 0 -3
BITMAP
0000
0000
0000
0000
0000
6B00
4100
0000
4100
4100
4100
0000
4100
6B00
0000
0000
0000
0000
ENDCHAR
STARTCHAR char0
ENCODING 157
SWIDTH 480 0
DWIDTH 9 0
BBX 9 18 0 -3
BITMAP
0000
0000
0000
0000
0000
6B00
4100
0000
4100
4100
4100
0000
4100
6B00
0000
0000
0000
0000
ENDCHAR
STARTCHAR char0
ENCODING 158
SWIDTH 480 0
DWIDTH 9 0
BBX 9 18 0 -3
BITMAP
0000
0000
0000
0000
0000
6B00
4100
0000
4100
4100
4100
0000
4100
6B00
0000
0000
0000
0000
ENDCHAR
STARTCHAR char0
ENCODING 159
SWIDTH 480 0
DWIDTH 9 0
BBX 9 18 0 -3
BITMAP
0000
0000
0000
0000
0000
6B00
4100
0000
4100
4100
4100
0000
4100
6B00
0000
0000
0000
0000
ENDCHAR
STARTCHAR char0
ENCODING 160
SWIDTH 480 0
DWIDTH 9 0
BBX 9 18 0 -3
BITMAP
0000
0000
0000
0000
0000
0000
0000
0000
0000
0000
0000
0000
0000
0000
0000
0000
0000
0000
ENDCHAR
STARTCHAR U+00a1
ENCODING 161
SWIDTH 480 0
DWIDTH 9 0
BBX 9 18 0 -3
BITMAP
0000
0000
0000
0000
0000
0C00
0C00
0000
0C00
0C00
0C00
0C00
0C00
0C00
0C00
0C00
0C00
0000
ENDCHAR
STARTCHAR U+0063
ENCODING 162
SWIDTH 480 0
DWIDTH 9 0
BBX 9 18 0 -3
BITMAP
0000
0000
0000
0400
0400
1F00
2480
2400
2400
2400
2400
2480
1F00
0400
0400
0000
0000
0000
ENDCHAR
STARTCHAR sU+00a3
ENCODING 163
SWIDTH 480 0
DWIDTH 9 0
BBX 9 18 0 -3
BITMAP
0000
0000
0000
0000
1E00
3100
3000
3000
3000
7800
3000
3000
3000
3100
7E00
0000
0000
0000
ENDCHAR
STARTCHAR U+00a4
ENCODING 164
SWIDTH 480 0
DWIDTH 9 0
BBX 9 18 0 -3
BITMAP
0000
0000
0000
0000
0000
0000
5D00
2200
4100
4100
4100
2200
5D00
0000
0000
0000
0000
0000
ENDCHAR
STARTCHAR U+00a5
ENCODING 165
SWIDTH 480 0
DWIDTH 9 0
BBX 9 18 0 -3
BITMAP
0000
0000
0000
3300
3300
3300
3300
7380
1E00
7F80
0C00
0C00
0C00
0C00
0C00
0000
0000
0000
ENDCHAR
STARTCHAR U+00a6
ENCODING 166
SWIDTH 480 0
DWIDTH 9 0
BBX 9 18 0 -3
BITMAP
0000
0000
0000
0C00
0C00
0C00
0C00
0C00
0000
0000
0C00
0C00
0C00
0C00
0C00
0000
0000
0000
ENDCHAR
STARTCHAR U+0073
ENCODING 167
SWIDTH 480 0
DWIDTH 9 0
BBX 9 18 0 -3
BITMAP
0000
7E00
C300
C300
C000
C000
7E00
C300
C300
C300
C300
7E00
0300
0300
C300
C300
7E00
0000
ENDCHAR
STARTCHAR char168
ENCODING 168
SWIDTH 480 0
DWIDTH 9 0
BBX 9 18 0 -3
BITMAP
0000
1100
1100
0000
0000
0000
0000
0000
0000
0000
0000
0000
0000
0000
0000
0000
0000
0000
ENDCHAR
STARTCHAR U+0063
ENCODING 169
SWIDTH 480 0
DWIDTH 9 0
BBX 9 18 0 -3
BITMAP
0000
0000
0000
0000
3E00
4100
4D00
5100
5100
4D00
4100
3E00
0000
0000
0000
0000
0000
0000
ENDCHAR
STARTCHAR U+00aa
ENCODING 170
SWIDTH 480 0
DWIDTH 9 0
BBX 9 18 0 -3
BITMAP
0000
0000
0000
0000
0E00
1100
0F00
1100
1F00
0000
1F00
0000
0000
0000
0000
0000
0000
0000
ENDCHAR
STARTCHAR much_less_than
ENCODING 171
SWIDTH 480 0
DWIDTH 9 0
BBX 9 18 0 -3
BITMAP
0000
0000
0000
0000
0000
0D80
1B00
3600
6C00
D800
6C00
3600
1B00
0D80
0000
0000
0000
0000
ENDCHAR
STARTCHAR char172
ENCODING 172
SWIDTH 480 0
DWIDTH 9 0
BBX 9 18 0 -3
BITMAP
0000
0000
0000
0000
0000
0000
0000
0000
0000
FF00
0300
0300
0300
0000
0000
0000
0000
0000
ENDCHAR
STARTCHAR U+002d
ENCODING 173
SWIDTH 480 0
DWIDTH 9 0
BBX 9 18 0 -3
BITMAP
0000
0000
0000
0000
0000
0000
0000
0000
0000
0000
7F00
0000
0000
0000
0000
0000
0000
0000
ENDCHAR
STARTCHAR U+0063
ENCODING 174
SWIDTH 480 0
DWIDTH 9 0
BBX 9 18 0 -3
BITMAP
0000
0000
0000
0000
3E00
4100
4D00
5100
5100
5100
4100
3E00
0000
0000
0000
0000
0000
0000
ENDCHAR
STARTCHAR char175
ENCODING 175
SWIDTH 480 0
DWIDTH 9 0
BBX 9 18 0 -3
BITMAP
0000
1F00
0000
0000
0000
0000
0000
0000
0000
0000
0000
0000
0000
0000
0000
0000
0000
0000
ENDCHAR
STARTCHAR char176
ENCODING 176
SWIDTH 480 0
DWIDTH 9 0
BBX 9 18 0 -3
BITMAP
0000
0000
0E00
1100
1100
1100
0E00
0000
0000
0000
0000
0000
0000
0000
0000
0000
0000
0000
ENDCHAR
STARTCHAR U+002b
ENCODING 177
SWIDTH 480 0
DWIDTH 9 0
BBX 9 18 0 -3
BITMAP
0000
0000
0000
0000
0000
0000
0800
0800
0800
7F00
0800
0800
0800
0000
7F00
0000
0000
0000
ENDCHAR
STARTCHAR U+0032
ENCODING 178
SWIDTH 480 0
DWIDTH 9 0
BBX 9 18 0 -3
BITMAP
0000
0000
0000
1C00
2600
0600
0600
0C00
1800
3E00
0000
0000
0000
0000
0000
0000
0000
0000
ENDCHAR
STARTCHAR U+0033
ENCODING 179
SWIDTH 480 0
DWIDTH 9 0
BBX 9 18 0 -3
BITMAP
0000
0000
0000
1C00
2600
0600
1C00
0600
2600
1C00
0000
0000
0000
0000
0000
0000
0000
0000
ENDCHAR
STARTCHAR U+00c0
ENCODING 180
SWIDTH 480 0
DWIDTH 9 0
BBX 9 18 0 -3
BITMAP
0600
0E00
0800
0000
0000
0000
0000
0000
0000
0000
0000
0000
0000
0000
0000
0000
0000
0000
ENDCHAR
STARTCHAR U+0075
ENCODING 181
SWIDTH 480 0
DWIDTH 9 0
BBX 9 18 0 -3
BITMAP
0000
0000
0000
0000
0000
0000
0000
6300
6300
6300
6300
6300
6300
6300
7F80
6000
6000
6000
ENDCHAR
STARTCHAR char182
ENCODING 182
SWIDTH 480 0
DWIDTH 9 0
BBX 9 18 0 -3
BITMAP
0000
0000
0000
1F00
3900
3900
3900
3900
1900
0900
0900
0900
0900
0900
0900
0000
0000
0000
ENDCHAR
STARTCHAR U+00b7
ENCODING 183
SWIDTH 480 0
DWIDTH 9 0
BBX 9 18 0 -3
BITMAP
0000
0000
0000
0000
0000
0000
0000
0000
0C00
0C00
0000
0000
0000
0000
0000
0000
0000
0000
ENDCHAR
STARTCHAR char184
ENCODING 184
SWIDTH 480 0
DWIDTH 9 0
BBX 9 18 0 -3
BITMAP
0000
0000
0000
0000
0000
0000
0000
0000
0000
0000
0000
0000
0000
0000
0000
0800
3800
3000
ENDCHAR
STARTCHAR char185
ENCODING 185
SWIDTH 480 0
DWIDTH 9 0
BBX 9 18 0 -3
BITMAP
0000
0000
0000
1C00
1C00
0C00
0C00
0C00
0C00
0C00
0000
0000
0000
0000
0000
0000
0000
0000
ENDCHAR
STARTCHAR U+00aa
ENCODING 186
SWIDTH 480 0
DWIDTH 9 0
BBX 9 18 0 -3
BITMAP
0000
0000
0000
0000
0E00
1100
1100
1100
0E00
0000
1F00
0000
0000
0000
0000
0000
0000
0000
ENDCHAR
STARTCHAR much_greater_than
ENCODING 187
SWIDTH 480 0
DWIDTH 9 0
BBX 9 18 0 -3
BITMAP
0000
0000
0000
0000
0000
D800
6C00
3600
1B00
0D80
1B00
3600
6C00
D800
0000
0000
0000
0000
ENDCHAR
STARTCHAR U+003f
ENCODING 191
SWIDTH 480 0
DWIDTH 9 0
BBX 9 18 0 -3
BITMAP
0000
0000
0000
0000
0000
0000
0C00
0C00
0000
0C00
0C00
1800
3000
6000
6000
6100
3E00
0000
ENDCHAR
STARTCHAR U+00c0
ENCODING 192
SWIDTH 480 0
DWIDTH 9 0
BBX 9 18 0 -3
BITMAP
3000
1800
0C00
0000
3E00
6300
6300
6300
6300
7F00
6300
6300
6300
6300
6300
0000
0000
0000
ENDCHAR
STARTCHAR U+00c0
ENCODING 193
SWIDTH 480 0
DWIDTH 9 0
BBX 9 18 0 -3
BITMAP
0600
0C00
1800
0000
3E00
6300
6300
6300
6300
7F00
6300
6300
6300
6300
6300
0000
0000
0000
ENDCHAR
STARTCHAR U+00c0
ENCODING 194
SWIDTH 480 0
DWIDTH 9 0
BBX 9 18 0 -3
BITMAP
0800
1C00
3600
0000
3E00
6300
6300
6300
6300
7F00
6300
6300
6300
6300
6300
0000
0000
0000
ENDCHAR
STARTCHAR U+00c0
ENCODING 195
SWIDTH 480 0
DWIDTH 9 0
BBX 9 18 0 -3
BITMAP
0000
3B00
6E00
0000
3E00
6300
6300
6300
6300
7F00
6300
6300
6300
6300
6300
0000
0000
0000
ENDCHAR
STARTCHAR U+00c0
ENCODING 196
SWIDTH 480 0
DWIDTH 9 0
BBX 9 18 0 -3
BITMAP
0000
3600
3600
0000
3E00
6300
6300
6300
6300
7F00
6300
6300
6300
6300
6300
0000
0000
0000
ENDCHAR
STARTCHAR U+00c0
ENCODING 197
SWIDTH 480 0
DWIDTH 9 0
BBX 9 18 0 -3
BITMAP
1C00
2200
2200
1C00
3E00
6300
6300
6300
6300
7F00
6300
6300
6300
6300
6300
0000
0000
0000
ENDCHAR
STARTCHAR U+00c0
ENCODING 198
SWIDTH 480 0
DWIDTH 9 0
BBX 9 18 0 -3
BITMAP
0000
0000
0000
0000
7F00
D800
D800
D800
D800
FE00
D800
D800
D800
D800
DF00
0000
0000
0000
ENDCHAR
STARTCHAR U+0043
ENCODING 199
SWIDTH 480 0
DWIDTH 9 0
BBX 9 18 0 -3
BITMAP
0000
0000
0000
0000
3E00
6100
6000
6000
6000
6000
6000
6000
6000
6100
3E00
0800
3800
3000
ENDCHAR
STARTCHAR U+0045
ENCODING 200
SWIDTH 480 0
DWIDTH 9 0
BBX 9 18 0 -3
BITMAP
3000
1800
0C00
0000
7F00
6000
6000
6000
6000
7C00
6000
6000
6000
6000
7F00
0000
0000
0000
ENDCHAR
STARTCHAR U+0045
ENCODING 201
SWIDTH 480 0
DWIDTH 9 0
BBX 9 18 0 -3
BITMAP
0600
0C00
1800
0000
7F00
6000
6000
6000
6000
7C00
6000
6000
6000
6000
7F00
0000
0000
0000
ENDCHAR
STARTCHAR U+0045
ENCODING 202
SWIDTH 480 0
DWIDTH 9 0
BBX 9 18 0 -3
BITMAP
0800
1C00
3600
0000
7F00
6000
6000
6000
6000
7C00
6000
6000
6000
6000
7F00
0000
0000
0000
ENDCHAR
STARTCHAR U+0045
ENCODING 203
SWIDTH 480 0
DWIDTH 9 0
BBX 9 18 0 -3
BITMAP
0000
3600
3600
0000
7F00
6000
6000
6000
6000
7C00
6000
6000
6000
6000
7F00
0000
0000
0000
ENDCHAR
STARTCHAR U+0049
ENCODING 204
SWIDTH 480 0
DWIDTH 9 0
BBX 9 18 0 -3
BITMAP
3000
1800
0C00
0000
7E00
1800
1800
1800
1800
1800
1800
1800
1800
1800
7E00
0000
0000
0000
ENDCHAR
STARTCHAR U+0049
ENCODING 205
SWIDTH 480 0
DWIDTH 9 0
BBX 9 18 0 -3
BITMAP
0600
0C00
1800
0000
7E00
1800
1800
1800
1800
1800
1800
1800
1800
1800
7E00
0000
0000
0000
ENDCHAR
STARTCHAR U+0049
ENCODING 206
SWIDTH 480 0
DWIDTH 9 0
BBX 9 18 0 -3
BITMAP
1800
3C00
2400
0000
7E00
1800
1800
1800
1800
1800
1800
1800
1800
1800
7E00
0000
0000
0000
ENDCHAR
STARTCHAR U+0049
ENCODING 207
SWIDTH 480 0
DWIDTH 9 0
BBX 9 18 0 -3
BITMAP
0000
6C00
6C00
0000
7E00
1800
1800
1800
1800
1800
1800
1800
1800
1800
7E00
0000
0000
0000
ENDCHAR
STARTCHAR U+0044
ENCODING 208
SWIDTH 480 0
DWIDTH 9 0
BBX 9 18 0 -3
BITMAP
0000
0000
0000
0000
7E00
6300
6300
6300
FB00
FB00
6300
6300
6300
6300
7E00
0000
0000
0000
ENDCHAR
STARTCHAR U+004e
ENCODING 209
SWIDTH 480 0
DWIDTH 9 0
BBX 9 18 0 -3
BITMAP
0000
3B00
6E00
0000
4100
4100
6100
7100
7900
5D00
4F00
4700
4300
4100
4100
0000
0000
0000
ENDCHAR
STARTCHAR U+004f
ENCODING 210
SWIDTH 480 0
DWIDTH 9 0
BBX 9 18 0 -3
BITMAP
3000
1800
0C00
0000
3E00
6300
6300
6300
6300
6300
6300
6300
6300
6300
3E00
0000
0000
0000
ENDCHAR
STARTCHAR U+004f
ENCODING 211
SWIDTH 480 0
DWIDTH 9 0
BBX 9 18 0 -3
BITMAP
0600
0C00
1800
0000
3E00
6300
6300
6300
6300
6300
6300
6300
6300
6300
3E00
0000
0000
0000
ENDCHAR
STARTCHAR U+004f
ENCODING 212
SWIDTH 480 0
DWIDTH 9 0
BBX 9 18 0 -3
BITMAP
0800
1C00
3600
0000
3E00
6300
6300
6300
6300
6300
6300
6300
6300
6300
3E00
0000
0000
0000
ENDCHAR
STARTCHAR U+004f
ENCODING 213
SWIDTH 480 0
DWIDTH 9 0
BBX 9 18 0 -3
BITMAP
0000
3B00
6E00
0000
3E00
6300
6300
6300
6300
6300
6300
6300
6300
6300
3E00
0000
0000
0000
ENDCHAR
STARTCHAR U+004f
ENCODING 214
SWIDTH 480 0
DWIDTH 9 0
BBX 9 18 0 -3
BITMAP
0000
3600
3600
0000
3E00
6300
6300
6300
6300
6300
6300
6300
6300
6300
3E00
0000
0000
0000
ENDCHAR
STARTCHAR U+002b
ENCODING 215
SWIDTH 480 0
DWIDTH 9 0
BBX 9 18 0 -3
BITMAP
0000
0000
0000
0000
0000
0000
4100
2200
1400
0800
1400
2200
4100
0000
0000
0000
0000
0000
ENDCHAR
STARTCHAR U+004f
ENCODING 216
SWIDTH 480 0
DWIDTH 9 0
BBX 9 18 0 -3
BITMAP
0000
0000
0000
0100
3E00
6300
6700
6700
6B00
6B00
6B00
7300
7300
6300
3E00
4000
0000
0000
ENDCHAR
STARTCHAR U+0055
ENCODING 217
SWIDTH 480 0
DWIDTH 9 0
BBX 9 18 0 -3
BITMAP
3000
1800
0C00
0000
6300
6300
6300
6300
6300
6300
6300
6300
6300
6300
3E00
0000
0000
0000
ENDCHAR
STARTCHAR U+0055
ENCODING 218
SWIDTH 480 0
DWIDTH 9 0
BBX 9 18 0 -3
BITMAP
0600
0C00
1800
0000
6300
6300
6300
6300
6300
6300
6300
6300
6300
6300
3E00
0000
0000
0000
ENDCHAR
STARTCHAR U+0055
ENCODING 219
SWIDTH 480 0
DWIDTH 9 0
BBX 9 18 0 -3
BITMAP
0800
1C00
3600
0000
6300
6300
6300
6300
6300
6300
6300
6300
6300
6300
3E00
0000
0000
0000
ENDCHAR
STARTCHAR U+0055
ENCODING 220
SWIDTH 480 0
DWIDTH 9 0
BBX 9 18 0 -3
BITMAP
0000
3600
3600
0000
6300
6300
6300
6300
6300
6300
6300
6300
6300
6300
3E00
0000
0000
0000
ENDCHAR
STARTCHAR U+0059
ENCODING 221
SWIDTH 480 0
DWIDTH 9 0
BBX 9 18 0 -3
BITMAP
0600
0C00
1800
0000
6600
6600
6600
6600
6600
3C00
1800
1800
1800
1800
1800
0000
0000
0000
ENDCHAR
STARTCHAR U+00de
ENCODING 222
SWIDTH 480 0
DWIDTH 9 0
BBX 9 18 0 -3
BITMAP
0000
0000
0000
6000
6000
6000
7E00
6300
6300
6300
6300
7E00
6000
6000
6000
0000
0000
0000
ENDCHAR
STARTCHAR U+0062
ENCODING 223
SWIDTH 480 0
DWIDTH 9 0
BBX 9 18 0 -3
BITMAP
0000
0000
0000
3C00
6600
6600
6600
6C00
6E00
6300
6300
6300
6300
6B00
6E00
0000
0000
0000
ENDCHAR
STARTCHAR U+0061
ENCODING 224
SWIDTH 480 0
DWIDTH 9 0
BBX 9 18 0 -3
BITMAP
0000
0000
0000
3000
1800
0C00
0000
3E00
4300
3F00
6300
6300
6300
6300
3F00
0000
0000
0000
ENDCHAR
STARTCHAR U+0061
ENCODING 225
SWIDTH 480 0
DWIDTH 9 0
BBX 9 18 0 -3
BITMAP
0000
0000
0000
0600
0C00
1800
0000
3E00
4300
3F00
6300
6300
6300
6300
3F00
0000
0000
0000
ENDCHAR
STARTCHAR U+0061
ENCODING 226
SWIDTH 480 0
DWIDTH 9 0
BBX 9 18 0 -3
BITMAP
0000
0000
0000
0800
1C00
3600
0000
3E00
4300
3F00
6300
6300
6300
6300
3F00
0000
0000
0000
ENDCHAR
STARTCHAR U+0061
ENCODING 227
SWIDTH 480 0
DWIDTH 9 0
BBX 9 18 0 -3
BITMAP
0000
0000
0000
0000
3B00
6E00
0000
3E00
4300
3F00
6300
6300
6300
6300
3F00
0000
0000
0000
ENDCHAR
STARTCHAR U+0061
ENCODING 228
SWIDTH 480 0
DWIDTH 9 0
BBX 9 18 0 -3
BITMAP
0000
0000
0000
0000
3600
3600
0000
3E00
4300
3F00
6300
6300
6300
6300
3F00
0000
0000
0000
ENDCHAR
STARTCHAR U+0061
ENCODING 229
SWIDTH 480 0
DWIDTH 9 0
BBX 9 18 0 -3
BITMAP
0000
0000
1C00
2200
2200
1C00
0000
3E00
4300
3F00
6300
6300
6300
6300
3F00
0000
0000
0000
ENDCHAR
STARTCHAR U+0061
ENCODING 230
SWIDTH 480 0
DWIDTH 9 0
BBX 9 18 0 -3
BITMAP
0000
0000
0000
0000
0000
0000
0000
7E00
9B00
1B00
7B00
DF00
D800
D900
7E00
0000
0000
0000
ENDCHAR
STARTCHAR U+0063
ENCODING 231
SWIDTH 480 0
DWIDTH 9 0
BBX 9 18 0 -3
BITMAP
0000
0000
0000
0000
0000
0000
0000
3E00
6100
6000
6000
6000
6000
6100
3E00
0800
3800
3000
ENDCHAR
STARTCHAR U+00e8
ENCODING 232
SWIDTH 480 0
DWIDTH 9 0
BBX 9 18 0 -3
BITMAP
0000
0000
0000
3000
1800
0C00
0000
3E00
6300
6300
6300
7F00
6000
6100
3E00
0000
0000
0000
ENDCHAR
STARTCHAR U+00e8
ENCODING 233
SWIDTH 480 0
DWIDTH 9 0
BBX 9 18 0 -3
BITMAP
0000
0000
0000
0600
0C00
1800
0000
3E00
6300
6300
6300
7F00
6000
6100
3E00
0000
0000
0000
ENDCHAR
STARTCHAR U+00e8
ENCODING 234
SWIDTH 480 0
DWIDTH 9 0
BBX 9 18 0 -3
BITMAP
0000
0000
0000
0800
1C00
3600
0000
3E00
6300
6300
6300
7F00
6000
6100
3E00
0000
0000
0000
ENDCHAR
STARTCHAR U+00eb
ENCODING 235
SWIDTH 480 0
DWIDTH 9 0
BBX 9 18 0 -3
BITMAP
0000
0000
0000
0000
3600
3600
0000
3E00
6300
6300
6300
7F00
6000
6100
3E00
0000
0000
0000
ENDCHAR
STARTCHAR U+0069
ENCODING 236
SWIDTH 480 0
DWIDTH 9 0
BBX 9 18 0 -3
BITMAP
0000
0000
0000
6000
3000
1800
0000
3800
1800
1800
1800
1800
1800
1800
0E00
0000
0000
0000
ENDCHAR
STARTCHAR U+0069
ENCODING 237
SWIDTH 480 0
DWIDTH 9 0
BBX 9 18 0 -3
BITMAP
0000
0000
0000
0C00
1800
3000
0000
3800
1800
1800
1800
1800
1800
1800
0E00
0000
0000
0000
ENDCHAR
STARTCHAR U+0069
ENCODING 238
SWIDTH 480 0
DWIDTH 9 0
BBX 9 18 0 -3
BITMAP
0000
0000
0000
1000
3800
6C00
0000
3800
1800
1800
1800
1800
1800
1800
0E00
0000
0000
0000
ENDCHAR
STARTCHAR U+0069
ENCODING 239
SWIDTH 480 0
DWIDTH 9 0
BBX 9 18 0 -3
BITMAP
0000
0000
0000
0000
6C00
6C00
0000
3800
1800
1800
1800
1800
1800
1800
0E00
0000
0000
0000
ENDCHAR
STARTCHAR U+0064
ENCODING 240
SWIDTH 480 0
DWIDTH 9 0
BBX 9 18 0 -3
BITMAP
0000
0000
0000
0000
6C00
3800
6C00
0600
3E00
6300
6300
6300
6300
6300
3E00
0000
0000
0000
ENDCHAR
STARTCHAR U+006e
ENCODING 241
SWIDTH 480 0
DWIDTH 9 0
BBX 9 18 0 -3
BITMAP
0000
0000
0000
0000
3B00
6E00
0000
7E00
6300
6300
6300
6300
6300
6300
6300
0000
0000
0000
ENDCHAR
STARTCHAR U+006f
ENCODING 242
SWIDTH 480 0
DWIDTH 9 0
BBX 9 18 0 -3
BITMAP
0000
0000
0000
3000
1800
0C00
0000
3E00
6300
6300
6300
6300
6300
6300
3E00
0000
0000
0000
ENDCHAR
STARTCHAR U+006f
ENCODING 243
SWIDTH 480 0
DWIDTH 9 0
BBX 9 18 0 -3
BITMAP
0000
0000
0000
0600
0C00
1800
0000
3E00
6300
6300
6300
6300
6300
6300
3E00
0000
0000
0000
ENDCHAR
STARTCHAR U+006f
ENCODING 244
SWIDTH 480 0
DWIDTH 9 0
BBX 9 18 0 -3
BITMAP
0000
0000
0000
0800
1C00
3600
0000
3E00
6300
6300
6300
6300
6300
6300
3E00
0000
0000
0000
ENDCHAR
STARTCHAR U+006f
ENCODING 245
SWIDTH 480 0
DWIDTH 9 0
BBX 9 18 0 -3
BITMAP
0000
0000
0000
0000
3B00
6E00
0000
3E00
6300
6300
6300
6300
6300
6300
3E00
0000
0000
0000
ENDCHAR
STARTCHAR U+006f
ENCODING 246
SWIDTH 480 0
DWIDTH 9 0
BBX 9 18 0 -3
BITMAP
0000
0000
0000
0000
3600
3600
0000
3E00
6300
6300
6300
6300
6300
6300
3E00
0000
0000
0000
ENDCHAR
STARTCHAR U+002b
ENCODING 247
SWIDTH 480 0
DWIDTH 9 0
BBX 9 18 0 -3
BITMAP
0000
0000
0000
0000
0000
0000
0800
0800
0000
7F00
0000
0800
0800
0000
0000
0000
0000
0000
ENDCHAR
STARTCHAR U+006f
ENCODING 248
SWIDTH 480 0
DWIDTH 9 0
BBX 9 18 0 -3
BITMAP
0000
0000
0000
0000
0000
0000
0080
3F80
6300
6700
6F00
7B00
7300
6300
7E00
0000
0000
0000
ENDCHAR
STARTCHAR U+0075
ENCODING 249
SWIDTH 480 0
DWIDTH 9 0
BBX 9 18 0 -3
BITMAP
0000
0000
0000
3000
1800
0C00
0000
6300
6300
6300
6300
6300
6300
6300
3F00
0000
0000
0000
ENDCHAR
STARTCHAR U+0075
ENCODING 250
SWIDTH 480 0
DWIDTH 9 0
BBX 9 18 0 -3
BITMAP
0000
0000
0000
0600
0C00
1800
0000
6300
6300
6300
6300
6300
6300
6300
3F00
0000
0000
0000
ENDCHAR
STARTCHAR U+0075
ENCODING 251
SWIDTH 480 0
DWIDTH 9 0
BBX 9 18 0 -3
BITMAP
0000
0000
0000
0800
1C00
3600
0000
6300
6300
6300
6300
6300
6300
6300
3F00
0000
0000
0000
ENDCHAR
STARTCHAR U+0075
ENCODING 252
SWIDTH 480 0
DWIDTH 9 0
BBX 9 18 0 -3
BITMAP
0000
0000
0000
0000
3600
3600
0000
6300
6300
6300
6300
6300
6300
6300
3F00
0000
0000
0000
ENDCHAR
STARTCHAR U+0079
ENCODING 253
SWIDTH 480 0
DWIDTH 9 0
BBX 9 18 0 -3
BITMAP
0000
0000
0000
0600
0C00
1800
0000
6300
6300
6300
6300
6300
6300
6300
3F00
0300
4300
3E00
ENDCHAR
STARTCHAR U+00FE
ENCODING 254
SWIDTH 480 0
DWIDTH 9 0
BBX 9 18 0 -3
BITMAP
0000
0000
0000
0000
6000
6000
6000
7E00
6300
6300
6300
6300
6300
6300
7E00
6000
6000
6000
ENDCHAR
STARTCHAR U+0079
ENCODING 255
SWIDTH 480 0
DWIDTH 9 0
BBX 9 18 0 -3
BITMAP
0000
0000
0000
0000
3600
3600
0000
6300
6300
6300
6300
6300
6300
6300
3F00
0300
4300
3E00
ENDCHAR
STARTCHAR U+0059
ENCODING 376
SWIDTH 480 0
DWIDTH 9 0
BBX 9 18 0 -3
BITMAP
0000
6600
6600
0000
6600
6600
6600
6600
6600
3C00
1800
1800
1800
1800
1800
0000
0000
0000
ENDCHAR
STARTCHAR U+006f
ENCODING 650
SWIDTH 480 0
DWIDTH 9 0
BBX 9 18 0 -3
BITMAP
0000
0000
0000
0000
0000
0000
7700
1400
3600
6300
6300
6300
6300
6300
3E00
0000
0000
0000
ENDCHAR
STARTCHAR U+0027
ENCODING 691
SWIDTH 480 0
DWIDTH 9 0
BBX 9 18 0 -3
BITMAP
0000
0000
0000
0E00
0800
0800
0800
0000
0000
0000
0000
0000
0000
0000
0000
0000
0000
0000
ENDCHAR
STARTCHAR U+0027
ENCODING 712
SWIDTH 480 0
DWIDTH 9 0
BBX 9 18 0 -3
BITMAP
0000
0000
0000
0800
0800
0800
0800
0000
0000
0000
0000
0000
0000
0000
0000
0000
0000
0000
ENDCHAR
STARTCHAR U+003a
ENCODING 720
SWIDTH 480 0
DWIDTH 9 0
BBX 9 18 0 -3
BITMAP
0000
0000
0000
0000
0000
0000
1C00
1C00
0800
0000
0000
0000
0800
1C00
1C00
0000
0000
0000
ENDCHAR
STARTCHAR U+007e
ENCODING 732
SWIDTH 480 0
DWIDTH 9 0
BBX 9 18 0 -3
BITMAP
0000
0000
0000
0000
0000
0000
0000
0000
3B00
6E00
0000
0000
0000
0000
0000
0000
0000
0000
ENDCHAR
STARTCHAR char920
ENCODING 920
SWIDTH 480 0
DWIDTH 9 0
BBX 9 18 0 -3
BITMAP
0000
0000
0000
0000
3E00
6300
6300
6300
6300
7F00
6300
6300
6300
6300
3E00
0000
0000
0000
ENDCHAR
STARTCHAR U+0061
ENCODING 945
SWIDTH 480 0
DWIDTH 9 0
BBX 9 18 0 -3
BITMAP
0000
0000
0000
0000
0000
0000
0000
7B00
CE00
C600
C600
C600
C600
CE00
7B00
0000
0000
0000
ENDCHAR
STARTCHAR U+0062
ENCODING 946
SWIDTH 480 0
DWIDTH 9 0
BBX 9 18 0 -3
BITMAP
0000
0000
0000
0000
3C00
6600
6600
6600
6400
7E00
6300
6300
6300
6300
7E00
6000
6000
6000
ENDCHAR
STARTCHAR char947
ENCODING 947
SWIDTH 480 0
DWIDTH 9 0
BBX 9 18 0 -3
BITMAP
0000
0000
0000
0000
0000
0000
0000
C600
C600
6600
6400
3400
3C00
1800
1800
1800
1800
1800
ENDCHAR
STARTCHAR U+0062
ENCODING 948
SWIDTH 480 0
DWIDTH 9 0
BBX 9 18 0 -3
BITMAP
0000
0000
0000
0000
0000
1E00
3200
1800
1C00
3600
6300
6300
6300
6300
3E00
0000
0000
0000
ENDCHAR
STARTCHAR char955
ENCODING 955
SWIDTH 480 0
DWIDTH 9 0
BBX 9 18 0 -3
BITMAP
0000
0000
0000
0000
6000
7000
1800
1800
0C00
1C00
1600
3600
2300
6300
4300
0000
0000
0000
ENDCHAR
STARTCHAR U+0075
ENCODING 956
SWIDTH 480 0
DWIDTH 9 0
BBX 9 18 0 -3
BITMAP
0000
0000
0000
0000
0000
0000
0000
6300
6300
6300
6300
6300
6300
6300
7F80
6000
6000
6000
ENDCHAR
STARTCHAR char960
ENCODING 960
SWIDTH 480 0
DWIDTH 9 0
BBX 9 18 0 -3
BITMAP
0000
0000
0000
0000
0000
0000
0000
7F00
FF00
2600
2600
2600
2700
6700
4700
0000
0000
0000
ENDCHAR
STARTCHAR char1488
ENCODING 1488
SWIDTH 480 0
DWIDTH 9 0
BBX 9 18 0 -3
BITMAP
0000
0000
0000
0000
0000
0000
8600
C700
E300
F300
7E00
CE00
C700
E300
E100
0000
0000
0000
ENDCHAR
STARTCHAR char1488
ENCODING 1489
SWIDTH 480 0
DWIDTH 9 0
BBX 9 18 0 -3
BITMAP
0000
0000
0000
0000
0000
0000
FE00
FF00
0300
0300
0300
0300
0300
FF80
FF80
0000
0000
0000
ENDCHAR
STARTCHAR char1490
ENCODING 1490
SWIDTH 480 0
DWIDTH 9 0
BBX 9 18 0 -3
BITMAP
0000
0000
0000
0000
0000
0000
F000
F800
1800
1800
1800
3800
7C00
CC00
CC00
0000
0000
0000
ENDCHAR
STARTCHAR char1488
ENCODING 1491
SWIDTH 480 0
DWIDTH 9 0
BBX 9 18 0 -3
BITMAP
0000
0000
0000
0000
0000
0000
FF80
FF80
0300
0300
0300
0300
0300
0300
0300
0000
0000
0000
ENDCHAR
STARTCHAR char1492
ENCODING 1492
SWIDTH 480 0
DWIDTH 9 0
BBX 9 18 0 -3
BITMAP
0000
0000
0000
0000
0000
0000
FE00
FF00
0300
6300
6300
6300
6300
6300
6300
0000
0000
0000
ENDCHAR
STARTCHAR char1488
ENCODING 1493
SWIDTH 480 0
DWIDTH 9 0
BBX 9 18 0 -3
BITMAP
0000
0000
0000
0000
0000
0000
7800
7800
1800
1800
1800
1800
1800
1800
1800
0000
0000
0000
ENDCHAR
STARTCHAR char1488
ENCODING 1494
SWIDTH 480 0
DWIDTH 9 0
BBX 9 18 0 -3
BITMAP
0000
0000
0000
0000
0000
0000
7E00
7E00
1800
1800
1800
1800
1800
1800
1800
0000
0000
0000
ENDCHAR
STARTCHAR char1492
ENCODING 1495
SWIDTH 480 0
DWIDTH 9 0
BBX 9 18 0 -3
BITMAP
0000
0000
0000
0000
0000
0000
FF00
FF00
6300
6300
6300
6300
6300
6300
6300
0000
0000
0000
ENDCHAR
STARTCHAR char1488
ENCODING 1496
SWIDTH 480 0
DWIDTH 9 0
BBX 9 18 0 -3
BITMAP
0000
0000
0000
0000
0000
0000
CF00
CF00
C300
C300
C300
C300
C600
FE00
F800
0000
0000
0000
ENDCHAR
STARTCHAR char1488
ENCODING 1497
SWIDTH 480 0
DWIDTH 9 0
BBX 9 18 0 -3
BITMAP
0000
0000
0000
0000
0000
0000
7800
7800
1800
1800
0000
0000
0000
0000
0000
0000
0000
0000
ENDCHAR
STARTCHAR char1488
ENCODING 1498
SWIDTH 480 0
DWIDTH 9 0
BBX 9 18 0 -3
BITMAP
0000
0000
0000
0000
0000
0000
FF80
FF80
0300
0300
0300
0300
0300
0300
0300
0300
0300
0000
ENDCHAR
STARTCHAR char1488
ENCODING 1499
SWIDTH 480 0
DWIDTH 9 0
BBX 9 18 0 -3
BITMAP
0000
0000
0000
0000
0000
0000
FC00
FE00
0300
0300
0300
0300
0300
FE00
FC00
0000
0000
0000
ENDCHAR
STARTCHAR char1500
ENCODING 1500
SWIDTH 480 0
DWIDTH 9 0
BBX 9 18 0 -3
BITMAP
0000
0000
0000
C000
C000
8000
FE00
FF00
0300
0300
0300
0600
0C00
1800
3000
0000
0000
0000
ENDCHAR
STARTCHAR char1492
ENCODING 1501
SWIDTH 480 0
DWIDTH 9 0
BBX 9 18 0 -3
BITMAP
0000
0000
0000
0000
0000
0000
FF00
FF00
6300
6300
6300
6300
6300
7F00
7F00
0000
0000
0000
ENDCHAR
STARTCHAR char1492
ENCODING 1502
SWIDTH 480 0
DWIDTH 9 0
BBX 9 18 0 -3
BITMAP
0000
0000
0000
0000
0000
0000
CE00
DF00
7300
6300
C300
C300
C300
DF00
DF00
0000
0000
0000
ENDCHAR
STARTCHAR char1488
ENCODING 1503
SWIDTH 480 0
DWIDTH 9 0
BBX 9 18 0 -3
BITMAP
0000
0000
0000
0000
0000
0000
7800
7800
1800
1800
1800
1800
1800
1800
1800
1800
1800
0000
ENDCHAR
STARTCHAR char1488
ENCODING 1504
SWIDTH 480 0
DWIDTH 9 0
BBX 9 18 0 -3
BITMAP
0000
0000
0000
0000
0000
0000
1E00
1E00
0600
0600
0600
0600
0600
7E00
7E00
0000
0000
0000
ENDCHAR
STARTCHAR char1492
ENCODING 1505
SWIDTH 480 0
DWIDTH 9 0
BBX 9 18 0 -3
BITMAP
0000
0000
0000
0000
0000
0000
FE00
FE00
2300
6300
6300
6300
6300
3E00
1C00
0000
0000
0000
ENDCHAR
STARTCHAR char1488
ENCODING 1506
SWIDTH 480 0
DWIDTH 9 0
BBX 9 18 0 -3
BITMAP
0000
0000
0000
0000
0000
0000
6300
6300
6300
3300
3300
1E00
1E00
FC00
F000
0000
0000
0000
ENDCHAR
STARTCHAR char1488
ENCODING 1507
SWIDTH 480 0
DWIDTH 9 0
BBX 9 18 0 -3
BITMAP
0000
0000
0000
0000
0000
0000
FE00
FF00
6300
7300
7300
0300
0300
0300
0300
0300
0300
0000
ENDCHAR
STARTCHAR char1488
ENCODING 1508
SWIDTH 480 0
DWIDTH 9 0
BBX 9 18 0 -3
BITMAP
0000
0000
0000
0000
0000
0000
FE00
FF00
6300
7300
7300
0300
0300
FF00
FE00
0000
0000
0000
ENDCHAR
STARTCHAR char1488
ENCODING 1509
SWIDTH 480 0
DWIDTH 9 0
BBX 9 18 0 -3
BITMAP
0000
0000
0000
0000
0000
0000
7300
7300
3300
3600
3C00
3800
3000
3000
3000
3000
3000
0000
ENDCHAR
STARTCHAR char1488
ENCODING 1510
SWIDTH 480 0
DWIDTH 9 0
BBX 9 18 0 -3
BITMAP
0000
0000
0000
0000
0000
0000
C300
C300
6600
3C00
1800
0C00
0600
FF00
FF00
0000
0000
0000
ENDCHAR
STARTCHAR char1488
ENCODING 1511
SWIDTH 480 0
DWIDTH 9 0
BBX 9 18 0 -3
BITMAP
0000
0000
0000
0000
0000
0000
FE00
FF00
0300
C300
C300
C600
CC00
D800
D000
C000
C000
C000
ENDCHAR
STARTCHAR char1488
ENCODING 1512
SWIDTH 480 0
DWIDTH 9 0
BBX 9 18 0 -3
BITMAP
0000
0000
0000
0000
0000
0000
FE00
FF00
0300
0300
0300
0300
0300
0300
0300
0000
0000
0000
ENDCHAR
STARTCHAR char1513
ENCODING 1513
SWIDTH 480 0
DWIDTH 9 0
BBX 9 18 0 -3
BITMAP
0000
0000
0000
0000
0000
0000
DB00
DB00
DB00
DB00
DB00
DB00
F300
FE00
FC00
0000
0000
0000
ENDCHAR
STARTCHAR char1492
ENCODING 1514
SWIDTH 480 0
DWIDTH 9 0
BBX 9 18 0 -3
BITMAP
0000
0000
0000
0000
0000
0000
FE00
FF00
6300
6300
6300
6300
6300
E300
E300
0000
0000
0000
ENDCHAR
STARTCHAR char8211
ENCODING 8211
SWIDTH 480 0
DWIDTH 9 0
BBX 9 18 0 -3
BITMAP
0000
0000
0000
0000
0000
0000
0000
0000
0000
0000
3E00
0000
0000
0000
0000
0000
0000
0000
ENDCHAR
STARTCHAR char8211
ENCODING 8212
SWIDTH 480 0
DWIDTH 9 0
BBX 9 18 0 -3
BITMAP
0000
0000
0000
0000
0000
0000
0000
0000
0000
0000
FF00
0000
0000
0000
0000
0000
0000
0000
ENDCHAR
STARTCHAR U+002c
ENCODING 8216
SWIDTH 480 0
DWIDTH 9 0
BBX 9 18 0 -3
BITMAP
0000
0400
0800
0C00
0C00
0000
0000
0000
0000
0000
0000
0000
0000
0000
0000
0000
0000
0000
ENDCHAR
STARTCHAR U+002c
ENCODING 8217
SWIDTH 480 0
DWIDTH 9 0
BBX 9 18 0 -3
BITMAP
0000
0000
0000
0C00
0C00
0400
0800
0000
0000
0000
0000
0000
0000
0000
0000
0000
0000
0000
ENDCHAR
STARTCHAR U+002c
ENCODING 8218
SWIDTH 480 0
DWIDTH 9 0
BBX 9 18 0 -3
BITMAP
0000
0000
0000
0000
0000
0000
0000
0000
0000
0000
0000
0000
0000
0C00
0C00
0400
0800
0000
ENDCHAR
STARTCHAR U+002c
ENCODING 8220
SWIDTH 480 0
DWIDTH 9 0
BBX 9 18 0 -3
BITMAP
0000
0900
1200
1B00
1B00
0000
0000
0000
0000
0000
0000
0000
0000
0000
0000
0000
0000
0000
ENDCHAR
STARTCHAR U+002c
ENCODING 8221
SWIDTH 480 0
DWIDTH 9 0
BBX 9 18 0 -3
BITMAP
0000
0000
0000
1B00
1B00
0900
1200
0000
0000
0000
0000
0000
0000
0000
0000
0000
0000
0000
ENDCHAR
STARTCHAR U+002c
ENCODING 8222
SWIDTH 480 0
DWIDTH 9 0
BBX 9 18 0 -3
BITMAP
0000
0000
0000
0000
0000
0000
0000
0000
0000
0000
0000
0000
0000
1B00
1B00
0900
1200
0000
ENDCHAR
STARTCHAR char8224
ENCODING 8224
SWIDTH 480 0
DWIDTH 9 0
BBX 9 18 0 -3
BITMAP
0000
0000
0000
0C00
0C00
0C00
7F80
7F80
0C00
0C00
0C00
0C00
0C00
0C00
0C00
0000
0000
0000
ENDCHAR
STARTCHAR char8224
ENCODING 8225
SWIDTH 480 0
DWIDTH 9 0
BBX 9 18 0 -3
BITMAP
0000
0000
0000
0C00
0C00
0C00
7F80
7F80
0C00
0C00
7F80
7F80
0C00
0C00
0C00
0000
0000
0000
ENDCHAR
STARTCHAR char8226
ENCODING 8226
SWIDTH 480 0
DWIDTH 9 0
BBX 9 18 0 -3
BITMAP
0000
0000
0000
0000
0000
0000
0000
1C00
3E00
3E00
3E00
1C00
0000
0000
0000
0000
0000
0000
ENDCHAR
STARTCHAR char8230
ENCODING 8230
SWIDTH 480 0
DWIDTH 9 0
BBX 9 18 0 -3
BITMAP
0000
0000
0000
0000
0000
0000
0000
0000
0000
0000
0000
0000
0000
0000
6D80
6D80
0000
0000
ENDCHAR
STARTCHAR U+0025
ENCODING 8240
SWIDTH 480 0
DWIDTH 9 0
BBX 9 18 0 -3
BITMAP
0000
0000
0000
0000
3000
4800
4800
3180
0600
1800
6000
0000
3180
4A00
4A00
3180
0000
0000
ENDCHAR
STARTCHAR U+0043
ENCODING 8364
SWIDTH 480 0
DWIDTH 9 0
BBX 9 18 0 -3
BITMAP
0000
0000
0000
0000
1F00
3080
3000
3000
7E00
3000
7E00
3000
3000
3080
1F00
0000
0000
0000
ENDCHAR
STARTCHAR U+0043
ENCODING 8450
SWIDTH 480 0
DWIDTH 9 0
BBX 9 18 0 -3
BITMAP
0000
0000
0000
0000
7E00
E100
A000
A000
A000
A000
A000
A000
A000
E100
7E00
0000
0000
0000
ENDCHAR
STARTCHAR U+0048
ENCODING 8461
SWIDTH 480 0
DWIDTH 9 0
BBX 9 18 0 -3
BITMAP
0000
0000
0000
0000
E300
A300
A300
A300
A300
BF00
A300
A300
A300
A300
E300
0000
0000
0000
ENDCHAR
STARTCHAR U+004e
ENCODING 8469
SWIDTH 480 0
DWIDTH 9 0
BBX 9 18 0 -3
BITMAP
0000
0000
0000
0000
E100
A100
A100
B100
B900
BD00
AF00
A700
A300
A100
E100
0000
0000
0000
ENDCHAR
STARTCHAR U+0050
ENCODING 8473
SWIDTH 480 0
DWIDTH 9 0
BBX 9 18 0 -3
BITMAP
0000
0000
0000
0000
FE00
A300
A300
A300
A300
BE00
A000
A000
A000
A000
E000
0000
0000
0000
ENDCHAR
STARTCHAR U+0051
ENCODING 8474
SWIDTH 480 0
DWIDTH 9 0
BBX 9 18 0 -3
BITMAP
0000
0000
0000
0000
7E00
A300
A300
A300
A300
A300
A300
A300
A300
A300
7E00
0200
0300
0000
ENDCHAR
STARTCHAR U+0052
ENCODING 8477
SWIDTH 480 0
DWIDTH 9 0
BBX 9 18 0 -3
BITMAP
0000
0000
0000
0000
7E00
5300
5300
5300
5300
5300
5E00
5300
5300
5300
7300
0000
0000
0000
ENDCHAR
STARTCHAR char8482
ENCODING 8482
SWIDTH 480 0
DWIDTH 9 0
BBX 9 18 0 -3
BITMAP
0000
1F00
0400
0400
0400
0400
0000
1B00
1F00
1500
1100
0000
0000
0000
0000
0000
0000
0000
ENDCHAR
STARTCHAR U+005a
ENCODING 8484
SWIDTH 480 0
DWIDTH 9 0
BBX 9 18 0 -3
BITMAP
0000
0000
0000
0000
FE00
0A00
0A00
1200
2400
4800
9000
A000
A000
A000
FE00
0000
0000
0000
ENDCHAR
STARTCHAR char8594
ENCODING 8592
SWIDTH 480 0
DWIDTH 9 0
BBX 9 18 0 -3
BITMAP
0000
0000
0000
0000
0000
0000
1800
3000
6000
FF00
6000
3000
1800
0000
0000
0000
0000
0000
ENDCHAR
STARTCHAR char8594
ENCODING 8593
SWIDTH 480 0
DWIDTH 9 0
BBX 9 18 0 -3
BITMAP
0000
0000
0000
0000
0800
1C00
3E00
6B00
4900
0800
0800
0800
0800
0800
0800
0000
0000
0000
ENDCHAR
STARTCHAR char8594
ENCODING 8594
SWIDTH 480 0
DWIDTH 9 0
BBX 9 18 0 -3
BITMAP
0000
0000
0000
0000
0000
0000
1800
0C00
0600
FF00
0600
0C00
1800
0000
0000
0000
0000
0000
ENDCHAR
STARTCHAR char8594
ENCODING 8595
SWIDTH 480 0
DWIDTH 9 0
BBX 9 18 0 -3
BITMAP
0000
0000
0000
0000
0800
0800
0800
0800
0800
0800
4900
6B00
3E00
1C00
0800
0000
0000
0000
ENDCHAR
STARTCHAR char8594
ENCODING 8596
SWIDTH 480 0
DWIDTH 9 0
BBX 9 18 0 -3
BITMAP
0000
0000
0000
0000
0000
0000
0000
3600
6300
FF80
6300
3600
0000
0000
0000
0000
0000
0000
ENDCHAR
STARTCHAR char8594
ENCODING 8597
SWIDTH 480 0
DWIDTH 9 0
BBX 9 18 0 -3
BITMAP
0000
0000
0000
0000
0800
1C00
3E00
6B00
4900
0800
4900
6B00
3E00
1C00
0800
0000
0000
0000
ENDCHAR
STARTCHAR char8594
ENCODING 8622
SWIDTH 480 0
DWIDTH 9 0
BBX 9 18 0 -3
BITMAP
0000
0000
0000
0000
0000
0100
0200
3600
6B00
FF80
6B00
3600
2000
4000
0000
0000
0000
0000
ENDCHAR
STARTCHAR char8658
ENCODING 8656
SWIDTH 480 0
DWIDTH 9 0
BBX 9 18 0 -3
BITMAP
0000
0000
0000
0000
0000
0000
0800
1800
3F80
6000
C000
6000
3F80
1800
0800
0000
0000
0000
ENDCHAR
STARTCHAR char8594
ENCODING 8657
SWIDTH 480 0
DWIDTH 9 0
BBX 9 18 0 -3
BITMAP
0000
0000
0000
0000
0800
1C00
3600
6300
6300
2200
2200
2200
2200
2200
2200
0000
0000
0000
ENDCHAR
STARTCHAR char8658
ENCODING 8658
SWIDTH 480 0
DWIDTH 9 0
BBX 9 18 0 -3
BITMAP
0000
0000
0000
0000
0000
0000
0800
0C00
FE00
0300
0180
0300
FE00
0C00
0800
0000
0000
0000
ENDCHAR
STARTCHAR char8594
ENCODING 8659
SWIDTH 480 0
DWIDTH 9 0
BBX 9 18 0 -3
BITMAP
0000
0000
0000
0000
2200
2200
2200
2200
2200
2200
6300
6300
3600
1C00
0800
0000
0000
0000
ENDCHAR
STARTCHAR char8594
ENCODING 8660
SWIDTH 480 0
DWIDTH 9 0
BBX 9 18 0 -3
BITMAP
0000
0000
0000
0000
0000
0000
0000
3600
7F00
C180
7F00
3600
0000
0000
0000
0000
0000
0000
ENDCHAR
STARTCHAR char8594
ENCODING 8661
SWIDTH 480 0
DWIDTH 9 0
BBX 9 18 0 -3
BITMAP
0000
0000
0000
0000
0800
1C00
3600
6300
6300
2200
6300
6300
3600
1C00
0800
0000
0000
0000
ENDCHAR
STARTCHAR U+0041
ENCODING 8704
SWIDTH 480 0
DWIDTH 9 0
BBX 9 18 0 -3
BITMAP
0000
0000
0000
0000
6300
6300
6300
6300
6300
7F00
6300
6300
6300
6300
3E00
0000
0000
0000
ENDCHAR
STARTCHAR complement
ENCODING 8705
SWIDTH 480 0
DWIDTH 9 0
BBX 9 18 0 -3
BITMAP
0000
0000
0000
3C00
6600
6000
6000
6000
6000
6000
6000
6000
6000
6000
6600
3C00
0000
0000
ENDCHAR
STARTCHAR U+0045
ENCODING 8707
SWIDTH 480 0
DWIDTH 9 0
BBX 9 18 0 -3
BITMAP
0000
0000
0000
0000
7F00
0300
0300
0300
0300
3F00
0300
0300
0300
0300
7F00
0000
0000
0000
ENDCHAR
STARTCHAR U+0045
ENCODING 8708
SWIDTH 480 0
DWIDTH 9 0
BBX 9 18 0 -3
BITMAP
0000
0000
0000
0200
7F00
0700
0B00
0B00
0B00
3F00
1300
2300
2300
2300
7F00
4000
0000
0000
ENDCHAR
STARTCHAR char8712
ENCODING 8712
SWIDTH 480 0
DWIDTH 9 0
BBX 9 18 0 -3
BITMAP
0000
0000
0000
0000
1F00
3000
6000
6000
7E00
6000
6000
3000
1F00
0000
0000
0000
0000
0000
ENDCHAR
STARTCHAR char8712
ENCODING 8715
SWIDTH 480 0
DWIDTH 9 0
BBX 9 18 0 -3
BITMAP
0000
0000
0000
0000
7C00
0600
0300
0300
3F00
0300
0300
0600
7C00
0000
0000
0000
0000
0000
ENDCHAR
STARTCHAR char8718
ENCODING 8718
SWIDTH 480 0
DWIDTH 9 0
BBX 9 18 0 -3
BITMAP
0000
0000
0000
0000
0000
0000
0000
7F00
7F00
7F00
7F00
7F00
7F00
7F00
0000
0000
0000
0000
ENDCHAR
STARTCHAR char8719
ENCODING 8719
SWIDTH 480 0
DWIDTH 9 0
BBX 9 18 0 -3
BITMAP
0000
0000
0000
7F80
6180
6180
6180
6180
6180
6180
6180
6180
6180
6180
6180
6180
0000
0000
ENDCHAR
STARTCHAR char8719
ENCODING 8720
SWIDTH 480 0
DWIDTH 9 0
BBX 9 18 0 -3
BITMAP
0000
0000
0000
6180
6180
6180
6180
6180
6180
6180
6180
6180
6180
6180
6180
7F80
0000
0000
ENDCHAR
STARTCHAR char8721
ENCODING 8721
SWIDTH 480 0
DWIDTH 9 0
BBX 9 18 0 -3
BITMAP
0000
0000
0000
FF00
C300
C300
6000
3000
1800
0C00
1800
3000
6000
C300
C300
FF00
0000
0000
ENDCHAR
STARTCHAR char8722
ENCODING 8722
SWIDTH 480 0
DWIDTH 9 0
BBX 9 18 0 -3
BITMAP
0000
0000
0000
0000
0000
0000
0000
0000
0000
3F80
0000
0000
0000
0000
0000
0000
0000
0000
ENDCHAR
STARTCHAR minus_or_plus
ENCODING 8723
SWIDTH 480 0
DWIDTH 9 0
BBX 9 18 0 -3
BITMAP
0000
0000
0000
0000
FF00
FF00
0000
1800
1800
1800
FF00
FF00
1800
1800
1800
0000
0000
0000
ENDCHAR
STARTCHAR dot_plus
ENCODING 8724
SWIDTH 480 0
DWIDTH 9 0
BBX 9 18 0 -3
BITMAP
0000
0000
0000
0000
1800
1800
0000
1800
1800
1800
FF00
FF00
1800
1800
1800
0000
0000
0000
ENDCHAR
STARTCHAR char8730
ENCODING 8730
SWIDTH 480 0
DWIDTH 9 0
BBX 9 18 0 -3
BITMAP
0000
0000
0000
0000
0000
0100
0100
0300
0200
C600
4400
6C00
3800
1000
1000
0000
0000
0000
ENDCHAR
STARTCHAR proportional_to
ENCODING 8733
SWIDTH 480 0
DWIDTH 9 0
BBX 9 18 0 -3
BITMAP
0000
0000
0000
0000
0000
0000
0000
3300
7F00
4C00
4C00
7F00
3300
0000
0000
0000
0000
0000
ENDCHAR
STARTCHAR infinity
ENCODING 8734
SWIDTH 480 0
DWIDTH 9 0
BBX 9 18 0 -3
BITMAP
0000
0000
0000
0000
0000
0000
0000
3300
7F80
4C80
4C80
7F80
3300
0000
0000
0000
0000
0000
ENDCHAR
STARTCHAR U+007c
ENCODING 8741
SWIDTH 480 0
DWIDTH 9 0
BBX 9 18 0 -3
BITMAP
0000
0000
6300
6300
6300
6300
6300
6300
6300
6300
6300
6300
6300
6300
6300
6300
6300
0000
ENDCHAR
STARTCHAR U+006e
ENCODING 8743
SWIDTH 480 0
DWIDTH 9 0
BBX 9 18 0 -3
BITMAP
0000
0000
0000
0000
0000
0000
0000
0800
1C00
1400
3600
2200
6300
6300
6300
0000
0000
0000
ENDCHAR
STARTCHAR U+006e
ENCODING 8744
SWIDTH 480 0
DWIDTH 9 0
BBX 9 18 0 -3
BITMAP
0000
0000
0000
0000
0000
0000
0000
6300
6300
6300
2200
3600
1400
1C00
0800
0000
0000
0000
ENDCHAR
STARTCHAR U+006e
ENCODING 8745
SWIDTH 480 0
DWIDTH 9 0
BBX 9 18 0 -3
BITMAP
0000
0000
0000
0000
0000
0000
0000
3E00
6300
6300
6300
6300
6300
6300
6300
0000
0000
0000
ENDCHAR
STARTCHAR U+006e
ENCODING 8746
SWIDTH 480 0
DWIDTH 9 0
BBX 9 18 0 -3
BITMAP
0000
0000
0000
0000
0000
0000
0000
6300
6300
6300
6300
6300
6300
6300
3E00
0000
0000
0000
ENDCHAR
STARTCHAR char8750
ENCODING 8750
SWIDTH 480 0
DWIDTH 9 0
BBX 9 18 0 -3
BITMAP
0000
0200
0400
0400
0400
0400
0E00
1500
1500
1500
0E00
0400
0400
0400
0400
0400
0800
0000
ENDCHAR
STARTCHAR char8756
ENCODING 8756
SWIDTH 480 0
DWIDTH 9 0
BBX 9 18 0 -3
BITMAP
0000
0000
0000
0000
0000
0000
0000
1800
1800
0000
0000
0000
6600
6600
0000
0000
0000
0000
ENDCHAR
STARTCHAR char8756
ENCODING 8757
SWIDTH 480 0
DWIDTH 9 0
BBX 9 18 0 -3
BITMAP
0000
0000
0000
0000
0000
0000
0000
6600
6600
0000
0000
0000
1800
1800
0000
0000
0000
0000
ENDCHAR
STARTCHAR char8756
ENCODING 8758
SWIDTH 480 0
DWIDTH 9 0
BBX 9 18 0 -3
BITMAP
0000
0000
0000
0000
0000
0000
0000
1800
1800
0000
0000
0000
1800
1800
0000
0000
0000
0000
ENDCHAR
STARTCHAR char8756
ENCODING 8759
SWIDTH 480 0
DWIDTH 9 0
BBX 9 18 0 -3
BITMAP
0000
0000
0000
0000
0000
0000
0000
6600
6600
0000
0000
0000
6600
6600
0000
0000
0000
0000
ENDCHAR
STARTCHAR char8722
ENCODING 8762
SWIDTH 480 0
DWIDTH 9 0
BBX 9 18 0 -3
BITMAP
0000
0000
0000
0000
0000
6300
6300
0000
7F00
7F00
0000
6300
6300
0000
0000
0000
0000
0000
ENDCHAR
STARTCHAR U+007e
ENCODING 8776
SWIDTH 480 0
DWIDTH 9 0
BBX 9 18 0 -3
BITMAP
0000
0000
0000
0000
3800
7C80
4F80
0700
3800
7C80
4F80
0700
0000
0000
0000
0000
0000
0000
ENDCHAR
STARTCHAR U+003a
ENCODING 8788
SWIDTH 480 0
DWIDTH 9 0
BBX 9 18 0 -3
BITMAP
0000
0000
0000
0000
0000
0000
0000
C000
DF00
0000
0000
0000
1F00
C000
C000
0000
0000
0000
ENDCHAR
STARTCHAR U+003a
ENCODING 8789
SWIDTH 480 0
DWIDTH 9 0
BBX 9 18 0 -3
BITMAP
0000
0000
0000
0000
0000
0000
0000
0300
FB00
0000
0000
0000
F800
0300
0300
0000
0000
0000
ENDCHAR
STARTCHAR U+003d
ENCODING 8800
SWIDTH 480 0
DWIDTH 9 0
BBX 9 18 0 -3
BITMAP
0000
0000
0000
0000
0000
0000
0100
0200
7F00
0400
0800
1000
7F00
2000
4000
0000
0000
0000
ENDCHAR
STARTCHAR U+003d
ENCODING 8801
SWIDTH 480 0
DWIDTH 9 0
BBX 9 18 0 -3
BITMAP
0000
0000
0000
0000
0000
0000
FF00
0000
0000
FF00
0000
0000
FF00
0000
0000
0000
0000
0000
ENDCHAR
STARTCHAR U+003d
ENCODING 8802
SWIDTH 480 0
DWIDTH 9 0
BBX 9 18 0 -3
BITMAP
0000
0000
0000
0000
0100
0200
FF00
0400
0800
FF00
1000
2000
FF00
4000
8000
0000
0000
0000
ENDCHAR
STARTCHAR U+003c
ENCODING 8804
SWIDTH 480 0
DWIDTH 9 0
BBX 9 18 0 -3
BITMAP
0000
0000
0000
0600
0C00
1800
3000
6000
3000
9800
CC00
6600
3000
1800
0C00
0000
0000
0000
ENDCHAR
STARTCHAR U+003c
ENCODING 8805
SWIDTH 480 0
DWIDTH 9 0
BBX 9 18 0 -3
BITMAP
0000
0000
0000
C000
6000
3000
1800
0C00
1800
3200
6600
CC00
1800
3000
6000
0000
0000
0000
ENDCHAR
STARTCHAR much_less_than
ENCODING 8810
SWIDTH 480 0
DWIDTH 9 0
BBX 9 18 0 -3
BITMAP
0000
0000
0000
0000
0000
0D80
1B00
3600
6C00
D800
6C00
3600
1B00
0D80
0000
0000
0000
0000
ENDCHAR
STARTCHAR much_greater_than
ENCODING 8811
SWIDTH 480 0
DWIDTH 9 0
BBX 9 18 0 -3
BITMAP
0000
0000
0000
0000
0000
D800
6C00
3600
1B00
0D80
1B00
3600
6C00
D800
0000
0000
0000
0000
ENDCHAR
STARTCHAR char8826
ENCODING 8826
SWIDTH 480 0
DWIDTH 9 0
BBX 9 18 0 -3
BITMAP
0000
0000
0000
0300
0300
0300
0300
0600
7C00
7C00
0600
0300
0300
0300
0300
0000
0000
0000
ENDCHAR
STARTCHAR succeeds
ENCODING 8827
SWIDTH 480 0
DWIDTH 9 0
BBX 9 18 0 -3
BITMAP
0000
0000
0000
6000
6000
6000
6000
3000
1F00
1F00
3000
6000
6000
6000
6000
0000
0000
0000
ENDCHAR
STARTCHAR char8712
ENCODING 8834
SWIDTH 480 0
DWIDTH 9 0
BBX 9 18 0 -3
BITMAP
0000
0000
0000
0000
1F00
3000
6000
6000
6000
6000
3000
1F00
0000
0000
0000
0000
0000
0000
ENDCHAR
STARTCHAR char8712
ENCODING 8835
SWIDTH 480 0
DWIDTH 9 0
BBX 9 18 0 -3
BITMAP
0000
0000
0000
0000
7C00
0600
0300
0300
0300
0300
0600
7C00
0000
0000
0000
0000
0000
0000
ENDCHAR
STARTCHAR char8712
ENCODING 8836
SWIDTH 480 0
DWIDTH 9 0
BBX 9 18 0 -3
BITMAP
0000
0000
0000
0200
1F00
3400
6400
6400
6800
6800
3800
1F00
1000
0000
0000
0000
0000
0000
ENDCHAR
STARTCHAR char8712
ENCODING 8837
SWIDTH 480 0
DWIDTH 9 0
BBX 9 18 0 -3
BITMAP
0000
0000
0000
0400
7C00
0E00
0B00
0B00
1300
1300
1600
7C00
2000
0000
0000
0000
0000
0000
ENDCHAR
STARTCHAR char8712
ENCODING 8838
SWIDTH 480 0
DWIDTH 9 0
BBX 9 18 0 -3
BITMAP
0000
0000
0000
1F00
3000
6000
6000
6000
6000
3000
1F00
0000
3F00
0000
0000
0000
0000
0000
ENDCHAR
STARTCHAR char8712
ENCODING 8839
SWIDTH 480 0
DWIDTH 9 0
BBX 9 18 0 -3
BITMAP
0000
0000
0000
7C00
0600
0300
0300
0300
0300
0600
7C00
0000
7E00
0000
0000
0000
0000
0000
ENDCHAR
STARTCHAR char8712
ENCODING 8840
SWIDTH 480 0
DWIDTH 9 0
BBX 9 18 0 -3
BITMAP
0000
0000
0200
1F00
3400
6400
6400
6800
6800
3800
1F00
1000
3F00
2000
0000
0000
0000
0000
ENDCHAR
STARTCHAR char8712
ENCODING 8841
SWIDTH 480 0
DWIDTH 9 0
BBX 9 18 0 -3
BITMAP
0000
0000
0400
7C00
0E00
0B00
0B00
1300
1300
1600
7C00
2000
7E00
4000
0000
0000
0000
0000
ENDCHAR
STARTCHAR multiset_union
ENCODING 8846
SWIDTH 480 0
DWIDTH 9 0
BBX 9 18 0 -3
BITMAP
0000
0000
0000
0000
0000
0000
6B00
6B00
7F00
6B00
6B00
6300
3E00
0000
0000
0000
0000
0000
ENDCHAR
STARTCHAR char8712
ENCODING 8847
SWIDTH 480 0
DWIDTH 9 0
BBX 9 18 0 -3
BITMAP
0000
0000
0000
0000
7F00
6000
6000
6000
6000
6000
6000
7F00
0000
0000
0000
0000
0000
0000
ENDCHAR
STARTCHAR char8712
ENCODING 8848
SWIDTH 480 0
DWIDTH 9 0
BBX 9 18 0 -3
BITMAP
0000
0000
0000
0000
7F00
0300
0300
0300
0300
0300
0300
7F00
0000
0000
0000
0000
0000
0000
ENDCHAR
STARTCHAR char8712
ENCODING 8849
SWIDTH 480 0
DWIDTH 9 0
BBX 9 18 0 -3
BITMAP
0000
0000
0000
7F00
6000
6000
6000
6000
6000
6000
7F00
0000
7F00
0000
0000
0000
0000
0000
ENDCHAR
STARTCHAR char8712
ENCODING 8850
SWIDTH 480 0
DWIDTH 9 0
BBX 9 18 0 -3
BITMAP
0000
0000
0000
7F00
0300
0300
0300
0300
0300
0300
7F00
0000
7F00
0000
0000
0000
0000
0000
ENDCHAR
STARTCHAR char8712
ENCODING 8851
SWIDTH 480 0
DWIDTH 9 0
BBX 9 18 0 -3
BITMAP
0000
0000
0000
0000
7F00
6300
6300
6300
6300
6300
6300
6300
0000
0000
0000
0000
0000
0000
ENDCHAR
STARTCHAR char8712
ENCODING 8852
SWIDTH 480 0
DWIDTH 9 0
BBX 9 18 0 -3
BITMAP
0000
0000
0000
0000
6300
6300
6300
6300
6300
6300
6300
7F00
0000
0000
0000
0000
0000
0000
ENDCHAR
STARTCHAR char9675
ENCODING 8853
SWIDTH 480 0
DWIDTH 9 0
BBX 9 18 0 -3
BITMAP
0000
0000
0000
0000
0000
3C00
5A00
9900
FF00
FF00
9900
5A00
3C00
0000
0000
0000
0000
0000
ENDCHAR
STARTCHAR char9675
ENCODING 8854
SWIDTH 480 0
DWIDTH 9 0
BBX 9 18 0 -3
BITMAP
0000
0000
0000
0000
0000
3C00
4200
8100
FF00
FF00
8100
4200
3C00
0000
0000
0000
0000
0000
ENDCHAR
STARTCHAR char9675
ENCODING 8855
SWIDTH 480 0
DWIDTH 9 0
BBX 9 18 0 -3
BITMAP
0000
0000
0000
0000
0000
3C00
6600
E700
9900
9900
E700
6600
3C00
0000
0000
0000
0000
0000
ENDCHAR
STARTCHAR char9675
ENCODING 8856
SWIDTH 480 0
DWIDTH 9 0
BBX 9 18 0 -3
BITMAP
0000
0000
0000
0000
0000
3C00
4600
8F00
9D00
B900
F100
6200
3C00
0000
0000
0000
0000
0000
ENDCHAR
STARTCHAR char9675
ENCODING 8857
SWIDTH 480 0
DWIDTH 9 0
BBX 9 18 0 -3
BITMAP
0000
0000
0000
0000
0000
3C00
4200
8100
9900
9900
8100
4200
3C00
0000
0000
0000
0000
0000
ENDCHAR
STARTCHAR char9675
ENCODING 8858
SWIDTH 480 0
DWIDTH 9 0
BBX 9 18 0 -3
BITMAP
0000
0000
0000
0000
0000
3C00
4200
9900
A500
A500
9900
4200
3C00
0000
0000
0000
0000
0000
ENDCHAR
STARTCHAR char9675
ENCODING 8859
SWIDTH 480 0
DWIDTH 9 0
BBX 9 18 0 -3
BITMAP
0000
0000
0000
0000
0000
3C00
6A00
EB00
9F00
F900
D700
5600
3C00
0000
0000
0000
0000
0000
ENDCHAR
STARTCHAR char9675
ENCODING 8860
SWIDTH 480 0
DWIDTH 9 0
BBX 9 18 0 -3
BITMAP
0000
0000
0000
0000
0000
3C00
7E00
8100
FF00
8100
FF00
4200
3C00
0000
0000
0000
0000
0000
ENDCHAR
STARTCHAR char9675
ENCODING 8861
SWIDTH 480 0
DWIDTH 9 0
BBX 9 18 0 -3
BITMAP
0000
0000
0000
0000
0000
3C00
4200
8100
FF00
8100
8100
4200
3C00
0000
0000
0000
0000
0000
ENDCHAR
STARTCHAR char9675
ENCODING 8862
SWIDTH 480 0
DWIDTH 9 0
BBX 9 18 0 -3
BITMAP
0000
0000
0000
0000
0000
FF00
9900
9900
FF00
FF00
9900
9900
FF00
0000
0000
0000
0000
0000
ENDCHAR
STARTCHAR char9675
ENCODING 8863
SWIDTH 480 0
DWIDTH 9 0
BBX 9 18 0 -3
BITMAP
0000
0000
0000
0000
0000
FF00
8100
8100
FF00
FF00
8100
8100
FF00
0000
0000
0000
0000
0000
ENDCHAR
STARTCHAR char9675
ENCODING 8864
SWIDTH 480 0
DWIDTH 9 0
BBX 9 18 0 -3
BITMAP
0000
0000
0000
0000
0000
FF00
C300
A500
9900
9900
A500
C300
FF00
0000
0000
0000
0000
0000
ENDCHAR
STARTCHAR char9675
ENCODING 8865
SWIDTH 480 0
DWIDTH 9 0
BBX 9 18 0 -3
BITMAP
0000
0000
0000
0000
0000
FF00
8100
8100
BD00
BD00
8100
8100
FF00
0000
0000
0000
0000
0000
ENDCHAR
STARTCHAR char8866
ENCODING 8866
SWIDTH 480 0
DWIDTH 9 0
BBX 9 18 0 -3
BITMAP
0000
0000
0000
0000
6000
6000
6000
6000
6000
7F00
6000
6000
6000
6000
6000
0000
0000
0000
ENDCHAR
STARTCHAR char8866
ENCODING 8867
SWIDTH 480 0
DWIDTH 9 0
BBX 9 18 0 -3
BITMAP
0000
0000
0000
0000
0300
0300
0300
0300
0300
7F00
0300
0300
0300
0300
0300
0000
0000
0000
ENDCHAR
STARTCHAR char8868
ENCODING 8868
SWIDTH 480 0
DWIDTH 9 0
BBX 9 18 0 -3
BITMAP
0000
0000
0000
0000
FF00
1800
1800
1800
1800
1800
1800
1800
1800
1800
1800
0000
0000
0000
ENDCHAR
STARTCHAR char8868
ENCODING 8869
SWIDTH 480 0
DWIDTH 9 0
BBX 9 18 0 -3
BITMAP
0000
0000
0000
0000
1800
1800
1800
1800
1800
1800
1800
1800
1800
1800
FF00
0000
0000
0000
ENDCHAR
STARTCHAR char8866
ENCODING 8870
SWIDTH 480 0
DWIDTH 9 0
BBX 9 18 0 -3
BITMAP
0000
0000
0000
0000
6000
6000
6000
6000
6000
7F00
6000
6000
6000
6000
6000
0000
0000
0000
ENDCHAR
STARTCHAR char8866
ENCODING 8871
SWIDTH 480 0
DWIDTH 9 0
BBX 9 18 0 -3
BITMAP
0000
0000
0000
0000
6000
6000
6000
7F00
6000
6000
6000
7F00
6000
6000
6000
0000
0000
0000
ENDCHAR
STARTCHAR char8866
ENCODING 8872
SWIDTH 480 0
DWIDTH 9 0
BBX 9 18 0 -3
BITMAP
0000
0000
0000
0000
6000
6000
6000
7F00
6000
6000
6000
7F00
6000
6000
6000
0000
0000
0000
ENDCHAR
STARTCHAR U+0063
ENCODING 8890
SWIDTH 480 0
DWIDTH 9 0
BBX 9 18 0 -3
BITMAP
0000
0000
0000
0000
0000
0000
0000
FF00
1800
1800
1800
1800
1800
1800
1800
0000
0000
0000
ENDCHAR
STARTCHAR U+006e
ENCODING 8891
SWIDTH 480 0
DWIDTH 9 0
BBX 9 18 0 -3
BITMAP
0000
0000
0000
0000
0000
0000
4100
6300
2200
3600
1400
1C00
0800
0000
7F00
0000
0000
0000
ENDCHAR
STARTCHAR U+006e
ENCODING 8892
SWIDTH 480 0
DWIDTH 9 0
BBX 9 18 0 -3
BITMAP
0000
0000
0000
0000
0000
0000
7F00
0000
0800
1C00
1400
3600
2200
6300
4100
0000
0000
0000
ENDCHAR
STARTCHAR U+006e
ENCODING 8893
SWIDTH 480 0
DWIDTH 9 0
BBX 9 18 0 -3
BITMAP
0000
0000
0000
0000
0000
0000
7F00
0000
4100
6300
2200
3600
1400
1C00
0800
0000
0000
0000
ENDCHAR
STARTCHAR char8901
ENCODING 8901
SWIDTH 480 0
DWIDTH 9 0
BBX 9 18 0 -3
BITMAP
0000
0000
0000
0000
0000
0000
0000
0000
1C00
1C00
1C00
0000
0000
0000
0000
0000
0000
0000
ENDCHAR
STARTCHAR char8968
ENCODING 8968
SWIDTH 480 0
DWIDTH 9 0
BBX 9 18 0 -3
BITMAP
0000
0F80
0F80
0C00
0C00
0C00
0C00
0C00
0C00
0C00
0C00
0C00
0C00
0C00
0C00
0C00
0C00
0C00
ENDCHAR
STARTCHAR char8968
ENCODING 8969
SWIDTH 480 0
DWIDTH 9 0
BBX 9 18 0 -3
BITMAP
0000
7C00
7C00
0C00
0C00
0C00
0C00
0C00
0C00
0C00
0C00
0C00
0C00
0C00
0C00
0C00
0C00
0C00
ENDCHAR
STARTCHAR char8968
ENCODING 8970
SWIDTH 480 0
DWIDTH 9 0
BBX 9 18 0 -3
BITMAP
0C00
0C00
0C00
0C00
0C00
0C00
0C00
0C00
0C00
0C00
0C00
0C00
0C00
0C00
0C00
0F80
0F80
0000
ENDCHAR
STARTCHAR char8968
ENCODING 8971
SWIDTH 480 0
DWIDTH 9 0
BBX 9 18 0 -3
BITMAP
0C00
0C00
0C00
0C00
0C00
0C00
0C00
0C00
0C00
0C00
0C00
0C00
0C00
0C00
0C00
7C00
7C00
0000
ENDCHAR
STARTCHAR char172
ENCODING 8976
SWIDTH 480 0
DWIDTH 9 0
BBX 9 18 0 -3
BITMAP
0000
0000
0000
0000
0000
0000
0000
0000
0000
FF00
C000
C000
C000
0000
0000
0000
0000
0000
ENDCHAR
STARTCHAR char9675
ENCODING 9000
SWIDTH 480 0
DWIDTH 9 0
BBX 9 18 0 -3
BITMAP
0000
0000
0000
0000
0000
FF80
9480
FE80
CA80
FF80
C180
FF80
0000
0000
0000
0000
0000
0000
ENDCHAR
STARTCHAR U+002f
ENCODING 9023
SWIDTH 480 0
DWIDTH 9 0
BBX 9 18 0 -3
BITMAP
0000
0000
0000
0100
0100
0200
0200
0400
3F00
0800
0800
1000
1000
2000
2000
0000
0000
0000
ENDCHAR
STARTCHAR U+006c
ENCODING 9075
SWIDTH 480 0
DWIDTH 9 0
BBX 9 18 0 -3
BITMAP
0000
0000
0000
0000
7800
1800
1800
1800
1800
1800
1800
1800
1800
1800
0F00
0000
0000
0000
ENDCHAR
STARTCHAR char9472
ENCODING 9472
SWIDTH 480 0
DWIDTH 9 0
BBX 9 18 0 -3
BITMAP
0000
0000
0000
0000
0000
0000
0000
0000
FF80
0000
0000
0000
0000
0000
0000
0000
0000
0000
ENDCHAR
STARTCHAR char9472
ENCODING 9473
SWIDTH 480 0
DWIDTH 9 0
BBX 9 18 0 -3
BITMAP
0000
0000
0000
0000
0000
0000
0000
FF80
FF80
FF80
0000
0000
0000
0000
0000
0000
0000
0000
ENDCHAR
STARTCHAR char9474
ENCODING 9474
SWIDTH 480 0
DWIDTH 9 0
BBX 9 18 0 -3
BITMAP
0800
0800
0800
0800
0800
0800
0800
0800
0800
0800
0800
0800
0800
0800
0800
0800
0800
0800
ENDCHAR
STARTCHAR char9474
ENCODING 9475
SWIDTH 480 0
DWIDTH 9 0
BBX 9 18 0 -3
BITMAP
1C00
1C00
1C00
1C00
1C00
1C00
1C00
1C00
1C00
1C00
1C00
1C00
1C00
1C00
1C00
1C00
1C00
1C00
ENDCHAR
STARTCHAR char9472
ENCODING 9476
SWIDTH 480 0
DWIDTH 9 0
BBX 9 18 0 -3
BITMAP
0000
0000
0000
0000
0000
0000
0000
0000
DB00
0000
0000
0000
0000
0000
0000
0000
0000
0000
ENDCHAR
STARTCHAR char9472
ENCODING 9477
SWIDTH 480 0
DWIDTH 9 0
BBX 9 18 0 -3
BITMAP
0000
0000
0000
0000
0000
0000
0000
DB00
DB00
DB00
0000
0000
0000
0000
0000
0000
0000
0000
ENDCHAR
STARTCHAR char9474
ENCODING 9478
SWIDTH 480 0
DWIDTH 9 0
BBX 9 18 0 -3
BITMAP
0000
0800
0800
0000
0800
0800
0800
0800
0000
0800
0800
0800
0800
0000
0800
0800
0800
0800
ENDCHAR
STARTCHAR char9474
ENCODING 9479
SWIDTH 480 0
DWIDTH 9 0
BBX 9 18 0 -3
BITMAP
0000
1C00
1C00
0000
1C00
1C00
1C00
1C00
0000
1C00
1C00
1C00
1C00
0000
1C00
1C00
1C00
1C00
ENDCHAR
STARTCHAR char9472
ENCODING 9480
SWIDTH 480 0
DWIDTH 9 0
BBX 9 18 0 -3
BITMAP
0000
0000
0000
0000
0000
0000
0000
0000
D580
0000
0000
0000
0000
0000
0000
0000
0000
0000
ENDCHAR
STARTCHAR char9472
ENCODING 9481
SWIDTH 480 0
DWIDTH 9 0
BBX 9 18 0 -3
BITMAP
0000
0000
0000
0000
0000
0000
0000
D580
D580
D580
0000
0000
0000
0000
0000
0000
0000
0000
ENDCHAR
STARTCHAR char9474
ENCODING 9482
SWIDTH 480 0
DWIDTH 9 0
BBX 9 18 0 -3
BITMAP
0800
0800
0000
0800
0800
0800
0000
0800
0800
0800
0000
0800
0800
0800
0000
0800
0800
0800
ENDCHAR
STARTCHAR char9474
ENCODING 9483
SWIDTH 480 0
DWIDTH 9 0
BBX 9 18 0 -3
BITMAP
1C00
1C00
0000
1C00
1C00
1C00
0000
1C00
1C00
1C00
0000
1C00
1C00
1C00
0000
1C00
1C00
1C00
ENDCHAR
STARTCHAR char9581
ENCODING 9484
SWIDTH 480 0
DWIDTH 9 0
BBX 9 18 0 -3
BITMAP
0000
0000
0000
0000
0000
0000
0000
0000
0F80
0800
0800
0800
0800
0800
0800
0800
0800
0800
ENDCHAR
STARTCHAR char9581
ENCODING 9485
SWIDTH 480 0
DWIDTH 9 0
BBX 9 18 0 -3
BITMAP
0000
0000
0000
0000
0000
0000
0000
0F80
0F80
0F80
0800
0800
0800
0800
0800
0800
0800
0800
ENDCHAR
STARTCHAR char9581
ENCODING 9486
SWIDTH 480 0
DWIDTH 9 0
BBX 9 18 0 -3
BITMAP
0000
0000
0000
0000
0000
0000
0000
0000
1F80
1C00
1C00
1C00
1C00
1C00
1C00
1C00
1C00
1C00
ENDCHAR
STARTCHAR char9581
ENCODING 9487
SWIDTH 480 0
DWIDTH 9 0
BBX 9 18 0 -3
BITMAP
0000
0000
0000
0000
0000
0000
0000
1F80
1F80
1F80
1C00
1C00
1C00
1C00
1C00
1C00
1C00
1C00
ENDCHAR
STARTCHAR char9581
ENCODING 9488
SWIDTH 480 0
DWIDTH 9 0
BBX 9 18 0 -3
BITMAP
0000
0000
0000
0000
0000
0000
0000
0000
F800
0800
0800
0800
0800
0800
0800
0800
0800
0800
ENDCHAR
STARTCHAR char9581
ENCODING 9489
SWIDTH 480 0
DWIDTH 9 0
BBX 9 18 0 -3
BITMAP
0000
0000
0000
0000
0000
0000
0000
F800
F800
F800
0800
0800
0800
0800
0800
0800
0800
0800
ENDCHAR
STARTCHAR char9581
ENCODING 9490
SWIDTH 480 0
DWIDTH 9 0
BBX 9 18 0 -3
BITMAP
0000
0000
0000
0000
0000
0000
0000
0000
FC00
1C00
1C00
1C00
1C00
1C00
1C00
1C00
1C00
1C00
ENDCHAR
STARTCHAR char9581
ENCODING 9491
SWIDTH 480 0
DWIDTH 9 0
BBX 9 18 0 -3
BITMAP
0000
0000
0000
0000
0000
0000
0000
FC00
FC00
FC00
1C00
1C00
1C00
1C00
1C00
1C00
1C00
1C00
ENDCHAR
STARTCHAR char9581
ENCODING 9492
SWIDTH 480 0
DWIDTH 9 0
BBX 9 18 0 -3
BITMAP
0800
0800
0800
0800
0800
0800
0800
0800
0F80
0000
0000
0000
0000
0000
0000
0000
0000
0000
ENDCHAR
STARTCHAR char9581
ENCODING 9493
SWIDTH 480 0
DWIDTH 9 0
BBX 9 18 0 -3
BITMAP
0800
0800
0800
0800
0800
0800
0800
0F80
0F80
0F80
0000
0000
0000
0000
0000
0000
0000
0000
ENDCHAR
STARTCHAR char9581
ENCODING 9494
SWIDTH 480 0
DWIDTH 9 0
BBX 9 18 0 -3
BITMAP
1C00
1C00
1C00
1C00
1C00
1C00
1C00
1C00
1F80
0000
0000
0000
0000
0000
0000
0000
0000
0000
ENDCHAR
STARTCHAR char9581
ENCODING 9495
SWIDTH 480 0
DWIDTH 9 0
BBX 9 18 0 -3
BITMAP
1C00
1C00
1C00
1C00
1C00
1C00
1C00
1F80
1F80
1F80
0000
0000
0000
0000
0000
0000
0000
0000
ENDCHAR
STARTCHAR char9581
ENCODING 9496
SWIDTH 480 0
DWIDTH 9 0
BBX 9 18 0 -3
BITMAP
0800
0800
0800
0800
0800
0800
0800
0800
F800
0000
0000
0000
0000
0000
0000
0000
0000
0000
ENDCHAR
STARTCHAR char9581
ENCODING 9497
SWIDTH 480 0
DWIDTH 9 0
BBX 9 18 0 -3
BITMAP
0800
0800
0800
0800
0800
0800
0800
F800
F800
F800
0000
0000
0000
0000
0000
0000
0000
0000
ENDCHAR
STARTCHAR char9581
ENCODING 9498
SWIDTH 480 0
DWIDTH 9 0
BBX 9 18 0 -3
BITMAP
1C00
1C00
1C00
1C00
1C00
1C00
1C00
1C00
FC00
0000
0000
0000
0000
0000
0000
0000
0000
0000
ENDCHAR
STARTCHAR char9581
ENCODING 9499
SWIDTH 480 0
DWIDTH 9 0
BBX 9 18 0 -3
BITMAP
1C00
1C00
1C00
1C00
1C00
1C00
1C00
FC00
FC00
FC00
0000
0000
0000
0000
0000
0000
0000
0000
ENDCHAR
STARTCHAR char9474
ENCODING 9500
SWIDTH 480 0
DWIDTH 9 0
BBX 9 18 0 -3
BITMAP
0800
0800
0800
0800
0800
0800
0800
0800
0F80
0800
0800
0800
0800
0800
0800
0800
0800
0800
ENDCHAR
STARTCHAR char9474
ENCODING 9501
SWIDTH 480 0
DWIDTH 9 0
BBX 9 18 0 -3
BITMAP
0800
0800
0800
0800
0800
0800
0800
0F80
0F80
0F80
0800
0800
0800
0800
0800
0800
0800
0800
ENDCHAR
STARTCHAR char9474
ENCODING 9502
SWIDTH 480 0
DWIDTH 9 0
BBX 9 18 0 -3
BITMAP
1C00
1C00
1C00
1C00
1C00
1C00
1C00
1C00
1F80
0800
0800
0800
0800
0800
0800
0800
0800
0800
ENDCHAR
STARTCHAR char9474
ENCODING 9503
SWIDTH 480 0
DWIDTH 9 0
BBX 9 18 0 -3
BITMAP
0800
0800
0800
0800
0800
0800
0800
0800
0F80
1C00
1C00
1C00
1C00
1C00
1C00
1C00
1C00
1C00
ENDCHAR
STARTCHAR char9474
ENCODING 9504
SWIDTH 480 0
DWIDTH 9 0
BBX 9 18 0 -3
BITMAP
1C00
1C00
1C00
1C00
1C00
1C00
1C00
1C00
1F80
1C00
1C00
1C00
1C00
1C00
1C00
1C00
1C00
1C00
ENDCHAR
STARTCHAR char9474
ENCODING 9505
SWIDTH 480 0
DWIDTH 9 0
BBX 9 18 0 -3
BITMAP
1C00
1C00
1C00
1C00
1C00
1C00
1C00
1F80
1F80
0F80
0800
0800
0800
0800
0800
0800
0800
0800
ENDCHAR
STARTCHAR char9474
ENCODING 9506
SWIDTH 480 0
DWIDTH 9 0
BBX 9 18 0 -3
BITMAP
0800
0800
0800
0800
0800
0800
0800
0F80
1F80
1F80
1C00
1C00
1C00
1C00
1C00
1C00
1C00
1C00
ENDCHAR
STARTCHAR char9581
ENCODING 9507
SWIDTH 480 0
DWIDTH 9 0
BBX 9 18 0 -3
BITMAP
1C00
1C00
1C00
1C00
1C00
1C00
1C00
1F80
1F80
1F80
1C00
1C00
1C00
1C00
1C00
1C00
1C00
1C00
ENDCHAR
STARTCHAR char9474
ENCODING 9508
SWIDTH 480 0
DWIDTH 9 0
BBX 9 18 0 -3
BITMAP
0800
0800
0800
0800
0800
0800
0800
0800
F800
0800
0800
0800
0800
0800
0800
0800
0800
0800
ENDCHAR
STARTCHAR char9474
ENCODING 9509
SWIDTH 480 0
DWIDTH 9 0
BBX 9 18 0 -3
BITMAP
0800
0800
0800
0800
0800
0800
0800
F800
F800
F800
0800
0800
0800
0800
0800
0800
0800
0800
ENDCHAR
STARTCHAR char9474
ENCODING 9510
SWIDTH 480 0
DWIDTH 9 0
BBX 9 18 0 -3
BITMAP
1C00
1C00
1C00
1C00
1C00
1C00
1C00
1C00
FC00
0800
0800
0800
0800
0800
0800
0800
0800
0800
ENDCHAR
STARTCHAR char9474
ENCODING 9511
SWIDTH 480 0
DWIDTH 9 0
BBX 9 18 0 -3
BITMAP
0800
0800
0800
0800
0800
0800
0800
0800
F800
1C00
1C00
1C00
1C00
1C00
1C00
1C00
1C00
1C00
ENDCHAR
STARTCHAR char9474
ENCODING 9512
SWIDTH 480 0
DWIDTH 9 0
BBX 9 18 0 -3
BITMAP
1C00
1C00
1C00
1C00
1C00
1C00
1C00
1C00
FC00
1C00
1C00
1C00
1C00
1C00
1C00
1C00
1C00
1C00
ENDCHAR
STARTCHAR char9474
ENCODING 9513
SWIDTH 480 0
DWIDTH 9 0
BBX 9 18 0 -3
BITMAP
1C00
1C00
1C00
1C00
1C00
1C00
1C00
FC00
FC00
F800
0800
0800
0800
0800
0800
0800
0800
0800
ENDCHAR
STARTCHAR char9474
ENCODING 9514
SWIDTH 480 0
DWIDTH 9 0
BBX 9 18 0 -3
BITMAP
0800
0800
0800
0800
0800
0800
0800
F800
FC00
FC00
1C00
1C00
1C00
1C00
1C00
1C00
1C00
1C00
ENDCHAR
STARTCHAR char9581
ENCODING 9515
SWIDTH 480 0
DWIDTH 9 0
BBX 9 18 0 -3
BITMAP
1C00
1C00
1C00
1C00
1C00
1C00
1C00
FC00
FC00
FC00
1C00
1C00
1C00
1C00
1C00
1C00
1C00
1C00
ENDCHAR
STARTCHAR char9472
ENCODING 9516
SWIDTH 480 0
DWIDTH 9 0
BBX 9 18 0 -3
BITMAP
0000
0000
0000
0000
0000
0000
0000
0000
FF80
0800
0800
0800
0800
0800
0800
0800
0800
0800
ENDCHAR
STARTCHAR char9472
ENCODING 9517
SWIDTH 480 0
DWIDTH 9 0
BBX 9 18 0 -3
BITMAP
0000
0000
0000
0000
0000
0000
0000
F800
FF80
F800
0800
0800
0800
0800
0800
0800
0800
0800
ENDCHAR
STARTCHAR char9472
ENCODING 9518
SWIDTH 480 0
DWIDTH 9 0
BBX 9 18 0 -3
BITMAP
0000
0000
0000
0000
0000
0000
0000
0F80
FF80
0F80
0800
0800
0800
0800
0800
0800
0800
0800
ENDCHAR
STARTCHAR char9472
ENCODING 9519
SWIDTH 480 0
DWIDTH 9 0
BBX 9 18 0 -3
BITMAP
0000
0000
0000
0000
0000
0000
0000
FF80
FF80
FF80
0800
0800
0800
0800
0800
0800
0800
0800
ENDCHAR
STARTCHAR char9472
ENCODING 9520
SWIDTH 480 0
DWIDTH 9 0
BBX 9 18 0 -3
BITMAP
0000
0000
0000
0000
0000
0000
0000
0000
FF80
1C00
1C00
1C00
1C00
1C00
1C00
1C00
1C00
1C00
ENDCHAR
STARTCHAR char9472
ENCODING 9521
SWIDTH 480 0
DWIDTH 9 0
BBX 9 18 0 -3
BITMAP
0000
0000
0000
0000
0000
0000
0000
F800
FF80
FC00
1C00
1C00
1C00
1C00
1C00
1C00
1C00
1C00
ENDCHAR
STARTCHAR char9472
ENCODING 9522
SWIDTH 480 0
DWIDTH 9 0
BBX 9 18 0 -3
BITMAP
0000
0000
0000
0000
0000
0000
0000
0F80
FF80
1F80
1C00
1C00
1C00
1C00
1C00
1C00
1C00
1C00
ENDCHAR
STARTCHAR char9472
ENCODING 9523
SWIDTH 480 0
DWIDTH 9 0
BBX 9 18 0 -3
BITMAP
0000
0000
0000
0000
0000
0000
0000
FF80
FF80
FF80
1C00
1C00
1C00
1C00
1C00
1C00
1C00
1C00
ENDCHAR
STARTCHAR char9581
ENCODING 9524
SWIDTH 480 0
DWIDTH 9 0
BBX 9 18 0 -3
BITMAP
0800
0800
0800
0800
0800
0800
0800
0800
FF80
0000
0000
0000
0000
0000
0000
0000
0000
0000
ENDCHAR
STARTCHAR char9581
ENCODING 9525
SWIDTH 480 0
DWIDTH 9 0
BBX 9 18 0 -3
BITMAP
0800
0800
0800
0800
0800
0800
0800
F800
FF80
F800
0000
0000
0000
0000
0000
0000
0000
0000
ENDCHAR
STARTCHAR char9581
ENCODING 9526
SWIDTH 480 0
DWIDTH 9 0
BBX 9 18 0 -3
BITMAP
0800
0800
0800
0800
0800
0800
0800
0F80
FF80
0F80
0000
0000
0000
0000
0000
0000
0000
0000
ENDCHAR
STARTCHAR char9581
ENCODING 9527
SWIDTH 480 0
DWIDTH 9 0
BBX 9 18 0 -3
BITMAP
0800
0800
0800
0800
0800
0800
0800
FF80
FF80
FF80
0000
0000
0000
0000
0000
0000
0000
0000
ENDCHAR
STARTCHAR char9581
ENCODING 9528
SWIDTH 480 0
DWIDTH 9 0
BBX 9 18 0 -3
BITMAP
1C00
1C00
1C00
1C00
1C00
1C00
1C00
1C00
FF80
0000
0000
0000
0000
0000
0000
0000
0000
0000
ENDCHAR
STARTCHAR char9581
ENCODING 9529
SWIDTH 480 0
DWIDTH 9 0
BBX 9 18 0 -3
BITMAP
1C00
1C00
1C00
1C00
1C00
1C00
1C00
FC00
FF80
F800
0000
0000
0000
0000
0000
0000
0000
0000
ENDCHAR
STARTCHAR char9581
ENCODING 9530
SWIDTH 480 0
DWIDTH 9 0
BBX 9 18 0 -3
BITMAP
1C00
1C00
1C00
1C00
1C00
1C00
1C00
1F80
FF80
0F80
0000
0000
0000
0000
0000
0000
0000
0000
ENDCHAR
STARTCHAR char9581
ENCODING 9531
SWIDTH 480 0
DWIDTH 9 0
BBX 9 18 0 -3
BITMAP
1C00
1C00
1C00
1C00
1C00
1C00
1C00
FF80
FF80
FF80
0000
0000
0000
0000
0000
0000
0000
0000
ENDCHAR
STARTCHAR char9472
ENCODING 9532
SWIDTH 480 0
DWIDTH 9 0
BBX 9 18 0 -3
BITMAP
0800
0800
0800
0800
0800
0800
0800
0800
FF80
0800
0800
0800
0800
0800
0800
0800
0800
0800
ENDCHAR
STARTCHAR char9472
ENCODING 9533
SWIDTH 480 0
DWIDTH 9 0
BBX 9 18 0 -3
BITMAP
0800
0800
0800
0800
0800
0800
0800
F800
FF80
F800
0800
0800
0800
0800
0800
0800
0800
0800
ENDCHAR
STARTCHAR char9472
ENCODING 9534
SWIDTH 480 0
DWIDTH 9 0
BBX 9 18 0 -3
BITMAP
0800
0800
0800
0800
0800
0800
0800
0F80
FF80
0F80
0800
0800
0800
0800
0800
0800
0800
0800
ENDCHAR
STARTCHAR char9472
ENCODING 9535
SWIDTH 480 0
DWIDTH 9 0
BBX 9 18 0 -3
BITMAP
0800
0800
0800
0800
0800
0800
0800
FF80
FF80
FF80
0800
0800
0800
0800
0800
0800
0800
0800
ENDCHAR
STARTCHAR char9472
ENCODING 9536
SWIDTH 480 0
DWIDTH 9 0
BBX 9 18 0 -3
BITMAP
1C00
1C00
1C00
1C00
1C00
1C00
1C00
1C00
1C00
FF80
0800
0800
0800
0800
0800
0800
0800
0800
ENDCHAR
STARTCHAR char9472
ENCODING 9537
SWIDTH 480 0
DWIDTH 9 0
BBX 9 18 0 -3
BITMAP
0800
0800
0800
0800
0800
0800
0800
0800
0800
FF80
1C00
1C00
1C00
1C00
1C00
1C00
1C00
1C00
ENDCHAR
STARTCHAR char9472
ENCODING 9538
SWIDTH 480 0
DWIDTH 9 0
BBX 9 18 0 -3
BITMAP
1C00
1C00
1C00
1C00
1C00
1C00
1C00
1C00
FF80
1C00
1C00
1C00
1C00
1C00
1C00
1C00
1C00
1C00
ENDCHAR
STARTCHAR char9472
ENCODING 9539
SWIDTH 480 0
DWIDTH 9 0
BBX 9 18 0 -3
BITMAP
1C00
1C00
1C00
1C00
1C00
1C00
1C00
FC00
FF80
F800
0800
0800
0800
0800
0800
0800
0800
0800
ENDCHAR
STARTCHAR char9472
ENCODING 9540
SWIDTH 480 0
DWIDTH 9 0
BBX 9 18 0 -3
BITMAP
1C00
1C00
1C00
1C00
1C00
1C00
1C00
1F80
FF80
0F80
0800
0800
0800
0800
0800
0800
0800
0800
ENDCHAR
STARTCHAR char9472
ENCODING 9541
SWIDTH 480 0
DWIDTH 9 0
BBX 9 18 0 -3
BITMAP
0800
0800
0800
0800
0800
0800
0800
F800
FF80
FC00
1C00
1C00
1C00
1C00
1C00
1C00
1C00
1C00
ENDCHAR
STARTCHAR char9472
ENCODING 9542
SWIDTH 480 0
DWIDTH 9 0
BBX 9 18 0 -3
BITMAP
0800
0800
0800
0800
0800
0800
0800
0F80
FF80
1F80
1C00
1C00
1C00
1C00
1C00
1C00
1C00
1C00
ENDCHAR
STARTCHAR char9472
ENCODING 9543
SWIDTH 480 0
DWIDTH 9 0
BBX 9 18 0 -3
BITMAP
1C00
1C00
1C00
1C00
1C00
1C00
1C00
FF80
FF80
FF80
0800
0800
0800
0800
0800
0800
0800
0800
ENDCHAR
STARTCHAR char9472
ENCODING 9544
SWIDTH 480 0
DWIDTH 9 0
BBX 9 18 0 -3
BITMAP
0800
0800
0800
0800
0800
0800
0800
FF80
FF80
FF80
1C00
1C00
1C00
1C00
1C00
1C00
1C00
1C00
ENDCHAR
STARTCHAR char9472
ENCODING 9545
SWIDTH 480 0
DWIDTH 9 0
BBX 9 18 0 -3
BITMAP
1C00
1C00
1C00
1C00
1C00
1C00
1C00
FC00
FF80
FC00
1C00
1C00
1C00
1C00
1C00
1C00
1C00
1C00
ENDCHAR
STARTCHAR char9472
ENCODING 9546
SWIDTH 480 0
DWIDTH 9 0
BBX 9 18 0 -3
BITMAP
1C00
1C00
1C00
1C00
1C00
1C00
1C00
1F80
FF80
1F80
1C00
1C00
1C00
1C00
1C00
1C00
1C00
1C00
ENDCHAR
STARTCHAR char9472
ENCODING 9547
SWIDTH 480 0
DWIDTH 9 0
BBX 9 18 0 -3
BITMAP
1C00
1C00
1C00
1C00
1C00
1C00
1C00
FF80
FF80
FF80
1C00
1C00
1C00
1C00
1C00
1C00
1C00
1C00
ENDCHAR
STARTCHAR char9472
ENCODING 9548
SWIDTH 480 0
DWIDTH 9 0
BBX 9 18 0 -3
BITMAP
0000
0000
0000
0000
0000
0000
0000
0000
F780
0000
0000
0000
0000
0000
0000
0000
0000
0000
ENDCHAR
STARTCHAR char9472
ENCODING 9549
SWIDTH 480 0
DWIDTH 9 0
BBX 9 18 0 -3
BITMAP
0000
0000
0000
0000
0000
0000
0000
F780
F780
F780
0000
0000
0000
0000
0000
0000
0000
0000
ENDCHAR
STARTCHAR char9474
ENCODING 9550
SWIDTH 480 0
DWIDTH 9 0
BBX 9 18 0 -3
BITMAP
0800
0800
0800
0800
0800
0800
0800
0000
0000
0800
0800
0800
0800
0800
0800
0800
0800
0800
ENDCHAR
STARTCHAR char9474
ENCODING 9551
SWIDTH 480 0
DWIDTH 9 0
BBX 9 18 0 -3
BITMAP
1C00
1C00
1C00
1C00
1C00
1C00
1C00
0000
0000
1C00
1C00
1C00
1C00
1C00
1C00
1C00
1C00
1C00
ENDCHAR
STARTCHAR char9472
ENCODING 9552
SWIDTH 480 0
DWIDTH 9 0
BBX 9 18 0 -3
BITMAP
0000
0000
0000
0000
0000
0000
0000
FF80
0000
0000
FF80
0000
0000
0000
0000
0000
0000
0000
ENDCHAR
STARTCHAR char9581
ENCODING 9553
SWIDTH 480 0
DWIDTH 9 0
BBX 9 18 0 -3
BITMAP
1200
1200
1200
1200
1200
1200
1200
1200
1200
1200
1200
1200
1200
1200
1200
1200
1200
1200
ENDCHAR
STARTCHAR char9581
ENCODING 9554
SWIDTH 480 0
DWIDTH 9 0
BBX 9 18 0 -3
BITMAP
0000
0000
0000
0000
0000
0000
0000
0F80
0800
0800
0F80
0800
0800
0800
0800
0800
0800
0800
ENDCHAR
STARTCHAR char9581
ENCODING 9555
SWIDTH 480 0
DWIDTH 9 0
BBX 9 18 0 -3
BITMAP
0000
0000
0000
0000
0000
0000
0000
0000
1F80
1200
1200
1200
1200
1200
1200
1200
1200
1200
ENDCHAR
STARTCHAR char9581
ENCODING 9556
SWIDTH 480 0
DWIDTH 9 0
BBX 9 18 0 -3
BITMAP
0000
0000
0000
0000
0000
0000
0000
1F80
1000
1000
1380
1200
1200
1200
1200
1200
1200
1200
ENDCHAR
STARTCHAR char9581
ENCODING 9557
SWIDTH 480 0
DWIDTH 9 0
BBX 9 18 0 -3
BITMAP
0000
0000
0000
0000
0000
0000
0000
F800
0800
0800
F800
0800
0800
0800
0800
0800
0800
0800
ENDCHAR
STARTCHAR char9581
ENCODING 9558
SWIDTH 480 0
DWIDTH 9 0
BBX 9 18 0 -3
BITMAP
0000
0000
0000
0000
0000
0000
0000
0000
FE00
1200
1200
1200
1200
1200
1200
1200
1200
1200
ENDCHAR
STARTCHAR char9581
ENCODING 9559
SWIDTH 480 0
DWIDTH 9 0
BBX 9 18 0 -3
BITMAP
0000
0000
0000
0000
0000
0000
0000
FE00
0200
0200
F200
1200
1200
1200
1200
1200
1200
1200
ENDCHAR
STARTCHAR char9581
ENCODING 9560
SWIDTH 480 0
DWIDTH 9 0
BBX 9 18 0 -3
BITMAP
0800
0800
0800
0800
0800
0800
0800
0F80
0800
0800
0F80
0000
0000
0000
0000
0000
0000
0000
ENDCHAR
STARTCHAR char9581
ENCODING 9561
SWIDTH 480 0
DWIDTH 9 0
BBX 9 18 0 -3
BITMAP
1200
1200
1200
1200
1200
1200
1200
1200
1F80
0000
0000
0000
0000
0000
0000
0000
0000
0000
ENDCHAR
STARTCHAR char9581
ENCODING 9562
SWIDTH 480 0
DWIDTH 9 0
BBX 9 18 0 -3
BITMAP
1200
1200
1200
1200
1200
1200
1200
1380
1000
1000
1F80
0000
0000
0000
0000
0000
0000
0000
ENDCHAR
STARTCHAR char9581
ENCODING 9563
SWIDTH 480 0
DWIDTH 9 0
BBX 9 18 0 -3
BITMAP
0800
0800
0800
0800
0800
0800
0800
F800
0800
0800
F800
0000
0000
0000
0000
0000
0000
0000
ENDCHAR
STARTCHAR char9581
ENCODING 9564
SWIDTH 480 0
DWIDTH 9 0
BBX 9 18 0 -3
BITMAP
1200
1200
1200
1200
1200
1200
1200
1200
FE00
0000
0000
0000
0000
0000
0000
0000
0000
0000
ENDCHAR
STARTCHAR char9581
ENCODING 9565
SWIDTH 480 0
DWIDTH 9 0
BBX 9 18 0 -3
BITMAP
1200
1200
1200
1200
1200
1200
1200
F200
0200
0200
FE00
0000
0000
0000
0000
0000
0000
0000
ENDCHAR
STARTCHAR char9474
ENCODING 9566
SWIDTH 480 0
DWIDTH 9 0
BBX 9 18 0 -3
BITMAP
0800
0800
0800
0800
0800
0800
0800
0F80
0800
0800
0F80
0800
0800
0800
0800
0800
0800
0800
ENDCHAR
STARTCHAR char9581
ENCODING 9567
SWIDTH 480 0
DWIDTH 9 0
BBX 9 18 0 -3
BITMAP
1200
1200
1200
1200
1200
1200
1200
1200
1380
1200
1200
1200
1200
1200
1200
1200
1200
1200
ENDCHAR
STARTCHAR char9581
ENCODING 9568
SWIDTH 480 0
DWIDTH 9 0
BBX 9 18 0 -3
BITMAP
1200
1200
1200
1200
1200
1200
1380
1000
1000
1380
1200
1200
1200
1200
1200
1200
1200
1200
ENDCHAR
STARTCHAR char9474
ENCODING 9569
SWIDTH 480 0
DWIDTH 9 0
BBX 9 18 0 -3
BITMAP
0800
0800
0800
0800
0800
0800
0800
F800
0800
0800
F800
0800
0800
0800
0800
0800
0800
0800
ENDCHAR
STARTCHAR char9581
ENCODING 9570
SWIDTH 480 0
DWIDTH 9 0
BBX 9 18 0 -3
BITMAP
1200
1200
1200
1200
1200
1200
1200
1200
F200
1200
1200
1200
1200
1200
1200
1200
1200
1200
ENDCHAR
STARTCHAR char9581
ENCODING 9571
SWIDTH 480 0
DWIDTH 9 0
BBX 9 18 0 -3
BITMAP
1200
1200
1200
1200
1200
1200
F200
0200
0200
F200
1200
1200
1200
1200
1200
1200
1200
1200
ENDCHAR
STARTCHAR char9472
ENCODING 9572
SWIDTH 480 0
DWIDTH 9 0
BBX 9 18 0 -3
BITMAP
0000
0000
0000
0000
0000
0000
0000
FF80
0000
0000
FF80
0800
0800
0800
0800
0800
0800
0800
ENDCHAR
STARTCHAR char9472
ENCODING 9573
SWIDTH 480 0
DWIDTH 9 0
BBX 9 18 0 -3
BITMAP
0000
0000
0000
0000
0000
0000
0000
0000
FF80
1200
1200
1200
1200
1200
1200
1200
1200
1200
ENDCHAR
STARTCHAR char9472
ENCODING 9574
SWIDTH 480 0
DWIDTH 9 0
BBX 9 18 0 -3
BITMAP
0000
0000
0000
0000
0000
0000
0000
FF80
0000
0000
F380
1200
1200
1200
1200
1200
1200
1200
ENDCHAR
STARTCHAR char9472
ENCODING 9575
SWIDTH 480 0
DWIDTH 9 0
BBX 9 18 0 -3
BITMAP
0800
0800
0800
0800
0800
0800
0800
FF80
0000
0000
FF80
0000
0000
0000
0000
0000
0000
0000
ENDCHAR
STARTCHAR char9472
ENCODING 9576
SWIDTH 480 0
DWIDTH 9 0
BBX 9 18 0 -3
BITMAP
1200
1200
1200
1200
1200
1200
1200
1200
FF80
0000
0000
0000
0000
0000
0000
0000
0000
0000
ENDCHAR
STARTCHAR char9472
ENCODING 9577
SWIDTH 480 0
DWIDTH 9 0
BBX 9 18 0 -3
BITMAP
1200
1200
1200
1200
1200
1200
1200
F380
0000
0000
FF80
0000
0000
0000
0000
0000
0000
0000
ENDCHAR
STARTCHAR char9472
ENCODING 9578
SWIDTH 480 0
DWIDTH 9 0
BBX 9 18 0 -3
BITMAP
0800
0800
0800
0800
0800
0800
0800
FF80
0000
0000
FF80
0800
0800
0800
0800
0800
0800
0800
ENDCHAR
STARTCHAR char9581
ENCODING 9579
SWIDTH 480 0
DWIDTH 9 0
BBX 9 18 0 -3
BITMAP
1200
1200
1200
1200
1200
1200
1200
1200
F380
1200
1200
1200
1200
1200
1200
1200
1200
1200
ENDCHAR
STARTCHAR char9581
ENCODING 9580
SWIDTH 480 0
DWIDTH 9 0
BBX 9 18 0 -3
BITMAP
1200
1200
1200
1200
1200
1200
1200
F380
0000
0000
F380
1200
1200
1200
1200
1200
1200
1200
ENDCHAR
STARTCHAR char9581
ENCODING 9581
SWIDTH 480 0
DWIDTH 9 0
BBX 9 18 0 -3
BITMAP
0000
0000
0000
0000
0000
0000
0000
0000
0780
0800
0800
0800
0800
0800
0800
0800
0800
0800
ENDCHAR
STARTCHAR char9581
ENCODING 9582
SWIDTH 480 0
DWIDTH 9 0
BBX 9 18 0 -3
BITMAP
0000
0000
0000
0000
0000
0000
0000
0000
F000
0800
0800
0800
0800
0800
0800
0800
0800
0800
ENDCHAR
STARTCHAR char9581
ENCODING 9583
SWIDTH 480 0
DWIDTH 9 0
BBX 9 18 0 -3
BITMAP
0800
0800
0800
0800
0800
0800
0800
0800
F000
0000
0000
0000
0000
0000
0000
0000
0000
0000
ENDCHAR
STARTCHAR char9581
ENCODING 9584
SWIDTH 480 0
DWIDTH 9 0
BBX 9 18 0 -3
BITMAP
0800
0800
0800
0800
0800
0800
0800
0800
0780
0000
0000
0000
0000
0000
0000
0000
0000
0000
ENDCHAR
STARTCHAR char9581
ENCODING 9585
SWIDTH 480 0
DWIDTH 9 0
BBX 9 18 0 -3
BITMAP
0080
0080
0100
0100
0200
0200
0400
0400
0800
0800
1000
1000
2000
2000
4000
4000
8000
8000
ENDCHAR
STARTCHAR char9586
ENCODING 9586
SWIDTH 480 0
DWIDTH 9 0
BBX 9 18 0 -3
BITMAP
8000
8000
4000
4000
2000
2000
1000
1000
0800
0800
0400
0400
0200
0200
0100
0100
0080
0080
ENDCHAR
STARTCHAR char9581
ENCODING 9587
SWIDTH 480 0
DWIDTH 9 0
BBX 9 18 0 -3
BITMAP
8080
8080
4100
4100
2200
2200
1400
1400
0800
0800
1400
1400
2200
2200
4100
4100
8080
8080
ENDCHAR
STARTCHAR char9472
ENCODING 9588
SWIDTH 480 0
DWIDTH 9 0
BBX 9 18 0 -3
BITMAP
0000
0000
0000
0000
0000
0000
0000
0000
F800
0000
0000
0000
0000
0000
0000
0000
0000
0000
ENDCHAR
STARTCHAR char9472
ENCODING 9589
SWIDTH 480 0
DWIDTH 9 0
BBX 9 18 0 -3
BITMAP
0800
0800
0800
0800
0800
0800
0800
0800
0800
0000
0000
0000
0000
0000
0000
0000
0000
0000
ENDCHAR
STARTCHAR char9472
ENCODING 9590
SWIDTH 480 0
DWIDTH 9 0
BBX 9 18 0 -3
BITMAP
0000
0000
0000
0000
0000
0000
0000
0000
0380
0000
0000
0000
0000
0000
0000
0000
0000
0000
ENDCHAR
STARTCHAR char9472
ENCODING 9591
SWIDTH 480 0
DWIDTH 9 0
BBX 9 18 0 -3
BITMAP
0000
0000
0000
0000
0000
0000
0000
0000
0000
0800
0800
0800
0800
0800
0800
0800
0800
0800
ENDCHAR
STARTCHAR char9472
ENCODING 9592
SWIDTH 480 0
DWIDTH 9 0
BBX 9 18 0 -3
BITMAP
0000
0000
0000
0000
0000
0000
0000
FC00
FC00
FC00
0000
0000
0000
0000
0000
0000
0000
0000
ENDCHAR
STARTCHAR char9472
ENCODING 9593
SWIDTH 480 0
DWIDTH 9 0
BBX 9 18 0 -3
BITMAP
1C00
1C00
1C00
1C00
1C00
1C00
1C00
1C00
1C00
0000
0000
0000
0000
0000
0000
0000
0000
0000
ENDCHAR
STARTCHAR char9472
ENCODING 9594
SWIDTH 480 0
DWIDTH 9 0
BBX 9 18 0 -3
BITMAP
0000
0000
0000
0000
0000
0000
0000
0780
0780
0780
0000
0000
0000
0000
0000
0000
0000
0000
ENDCHAR
STARTCHAR char9472
ENCODING 9595
SWIDTH 480 0
DWIDTH 9 0
BBX 9 18 0 -3
BITMAP
0000
0000
0000
0000
0000
0000
0000
0000
0000
1C00
1C00
1C00
1C00
1C00
1C00
1C00
1C00
1C00
ENDCHAR
STARTCHAR char9472
ENCODING 9596
SWIDTH 480 0
DWIDTH 9 0
BBX 9 18 0 -3
BITMAP
0000
0000
0000
0000
0000
0000
0000
0780
FF80
0780
0000
0000
0000
0000
0000
0000
0000
0000
ENDCHAR
STARTCHAR char9472
ENCODING 9597
SWIDTH 480 0
DWIDTH 9 0
BBX 9 18 0 -3
BITMAP
0800
0800
0800
0800
0800
0800
0800
0800
0800
1C00
1C00
1C00
1C00
1C00
1C00
1C00
1C00
1C00
ENDCHAR
STARTCHAR char9472
ENCODING 9598
SWIDTH 480 0
DWIDTH 9 0
BBX 9 18 0 -3
BITMAP
0000
0000
0000
0000
0000
0000
0000
FC00
FF80
FC00
0000
0000
0000
0000
0000
0000
0000
0000
ENDCHAR
STARTCHAR char9472
ENCODING 9599
SWIDTH 480 0
DWIDTH 9 0
BBX 9 18 0 -3
BITMAP
1C00
1C00
1C00
1C00
1C00
1C00
1C00
1C00
1C00
0800
0800
0800
0800
0800
0800
0800
0800
0800
ENDCHAR
STARTCHAR char9617
ENCODING 9600
SWIDTH 480 0
DWIDTH 9 0
BBX 9 18 0 -3
BITMAP
FF80
FF80
FF80
FF80
FF80
FF80
FF80
FF80
FF80
0000
0000
0000
0000
0000
0000
0000
0000
0000
ENDCHAR
STARTCHAR char9617
ENCODING 9601
SWIDTH 480 0
DWIDTH 9 0
BBX 9 18 0 -3
BITMAP
0000
0000
0000
0000
0000
0000
0000
0000
0000
0000
0000
0000
0000
0000
0000
0000
FF80
FF80
ENDCHAR
STARTCHAR char9602
ENCODING 9602
SWIDTH 480 0
DWIDTH 9 0
BBX 9 18 0 -3
BITMAP
0000
0000
0000
0000
0000
0000
0000
0000
0000
0000
0000
0000
0000
FF80
FF80
FF80
FF80
FF80
ENDCHAR
STARTCHAR char9617
ENCODING 9603
SWIDTH 480 0
DWIDTH 9 0
BBX 9 18 0 -3
BITMAP
0000
0000
0000
0000
0000
0000
0000
0000
0000
0000
0000
FF80
FF80
FF80
FF80
FF80
FF80
FF80
ENDCHAR
STARTCHAR char9617
ENCODING 9604
SWIDTH 480 0
DWIDTH 9 0
BBX 9 18 0 -3
BITMAP
0000
0000
0000
0000
0000
0000
0000
0000
FF80
FF80
FF80
FF80
FF80
FF80
FF80
FF80
FF80
FF80
ENDCHAR
STARTCHAR char9617
ENCODING 9605
SWIDTH 480 0
DWIDTH 9 0
BBX 9 18 0 -3
BITMAP
0000
0000
0000
0000
0000
0000
FF80
FF80
FF80
FF80
FF80
FF80
FF80
FF80
FF80
FF80
FF80
FF80
ENDCHAR
STARTCHAR char9617
ENCODING 9606
SWIDTH 480 0
DWIDTH 9 0
BBX 9 18 0 -3
BITMAP
0000
0000
0000
0000
FF80
FF80
FF80
FF80
FF80
FF80
FF80
FF80
FF80
FF80
FF80
FF80
FF80
FF80
ENDCHAR
STARTCHAR char9617
ENCODING 9607
SWIDTH 480 0
DWIDTH 9 0
BBX 9 18 0 -3
BITMAP
0000
0000
FF80
FF80
FF80
FF80
FF80
FF80
FF80
FF80
FF80
FF80
FF80
FF80
FF80
FF80
FF80
FF80
ENDCHAR
STARTCHAR char9617
ENCODING 9608
SWIDTH 480 0
DWIDTH 9 0
BBX 9 18 0 -3
BITMAP
FF80
FF80
FF80
FF80
FF80
FF80
FF80
FF80
FF80
FF80
FF80
FF80
FF80
FF80
FF80
FF80
FF80
FF80
ENDCHAR
STARTCHAR char9617
ENCODING 9612
SWIDTH 480 0
DWIDTH 9 0
BBX 9 18 0 -3
BITMAP
F800
F800
F800
F800
F800
F800
F800
F800
F800
F800
F800
F800
F800
F800
F800
F800
F800
F800
ENDCHAR
STARTCHAR char9617
ENCODING 9616
SWIDTH 480 0
DWIDTH 9 0
BBX 9 18 0 -3
BITMAP
0F80
0F80
0F80
0F80
0F80
0F80
0F80
0F80
0F80
0F80
0F80
0F80
0F80
0F80
0F80
0F80
0F80
0F80
ENDCHAR
STARTCHAR char9617
ENCODING 9617
SWIDTH 480 0
DWIDTH 9 0
BBX 9 18 0 -3
BITMAP
8880
1100
4400
2200
8880
1100
4400
2200
8880
1100
4400
2200
8880
1100
4400
2200
8880
1100
ENDCHAR
STARTCHAR char9618
ENCODING 9618
SWIDTH 480 0
DWIDTH 9 0
BBX 9 18 0 -3
BITMAP
AA80
5500
AA80
5500
AA80
5500
AA80
5500
AA80
5500
AA80
5500
AA80
5500
AA80
5500
AA80
5500
ENDCHAR
STARTCHAR char9617
ENCODING 9619
SWIDTH 480 0
DWIDTH 9 0
BBX 9 18 0 -3
BITMAP
7700
EE80
BB80
DD80
7700
EE80
BB80
DD80
7700
EE80
BB80
DD80
7700
EE80
BB80
DD80
7700
EE80
ENDCHAR
STARTCHAR black_square
ENCODING 9632
SWIDTH 480 0
DWIDTH 9 0
BBX 9 18 0 -3
BITMAP
0000
0000
0000
0000
0000
FF00
FF00
FF00
FF00
FF00
FF00
FF00
FF00
0000
0000
0000
0000
0000
ENDCHAR
STARTCHAR white_square
ENCODING 9633
SWIDTH 480 0
DWIDTH 9 0
BBX 9 18 0 -3
BITMAP
0000
0000
0000
0000
0000
FF00
8100
8100
8100
8100
8100
8100
FF00
0000
0000
0000
0000
0000
ENDCHAR
STARTCHAR black_up_triang
ENCODING 9650
SWIDTH 480 0
DWIDTH 9 0
BBX 9 18 0 -3
BITMAP
0000
0000
0000
0000
0000
1800
1800
3C00
3C00
7E00
7E00
FF00
FF00
0000
0000
0000
0000
0000
ENDCHAR
STARTCHAR black_down_triang
ENCODING 9660
SWIDTH 480 0
DWIDTH 9 0
BBX 9 18 0 -3
BITMAP
0000
0000
0000
0000
0000
FF00
FF00
7E00
7E00
3C00
3C00
1800
1800
0000
0000
0000
0000
0000
ENDCHAR
STARTCHAR char9675
ENCODING 9675
SWIDTH 480 0
DWIDTH 9 0
BBX 9 18 0 -3
BITMAP
0000
0000
0000
0000
0000
3C00
4200
8100
8100
8100
8100
4200
3C00
0000
0000
0000
0000
0000
ENDCHAR
STARTCHAR char9675
ENCODING 9692
SWIDTH 480 0
DWIDTH 9 0
BBX 9 18 0 -3
BITMAP
0000
0000
0000
0000
0000
3800
4000
8000
8000
8000
0000
0000
0000
0000
0000
0000
0000
0000
ENDCHAR
STARTCHAR char9675
ENCODING 9693
SWIDTH 480 0
DWIDTH 9 0
BBX 9 18 0 -3
BITMAP
0000
0000
0000
0000
0000
0E00
0100
0080
0080
0080
0000
0000
0000
0000
0000
0000
0000
0000
ENDCHAR
STARTCHAR char9675
ENCODING 9694
SWIDTH 480 0
DWIDTH 9 0
BBX 9 18 0 -3
BITMAP
0000
0000
0000
0000
0000
0000
0000
0000
0000
8000
8000
8000
4000
3800
0000
0000
0000
0000
ENDCHAR
STARTCHAR char9675
ENCODING 9695
SWIDTH 480 0
DWIDTH 9 0
BBX 9 18 0 -3
BITMAP
0000
0000
0000
0000
0000
0000
0000
0000
0000
0080
0080
0080
0100
0E00
0000
0000
0000
0000
ENDCHAR
STARTCHAR char9675
ENCODING 9696
SWIDTH 480 0
DWIDTH 9 0
BBX 9 18 0 -3
BITMAP
0000
0000
0000
0000
0000
3E00
4100
8080
8080
8080
0000
0000
0000
0000
0000
0000
0000
0000
ENDCHAR
STARTCHAR char9675
ENCODING 9697
SWIDTH 480 0
DWIDTH 9 0
BBX 9 18 0 -3
BITMAP
0000
0000
0000
0000
0000
0000
0000
0000
0000
8080
8080
8080
4100
3E00
0000
0000
0000
0000
ENDCHAR
STARTCHAR char9675
ENCODING 9716
SWIDTH 480 0
DWIDTH 9 0
BBX 9 18 0 -3
BITMAP
0000
0000
0000
0000
0000
3E00
4900
8880
8880
F880
8080
8080
4100
3E00
0000
0000
0000
0000
ENDCHAR
STARTCHAR char9675
ENCODING 9717
SWIDTH 480 0
DWIDTH 9 0
BBX 9 18 0 -3
BITMAP
0000
0000
0000
0000
0000
3E00
4100
8080
8080
F880
8880
8880
4900
3E00
0000
0000
0000
0000
ENDCHAR
STARTCHAR char9675
ENCODING 9718
SWIDTH 480 0
DWIDTH 9 0
BBX 9 18 0 -3
BITMAP
0000
0000
0000
0000
0000
3E00
4100
8080
8080
8F80
8880
8880
4900
3E00
0000
0000
0000
0000
ENDCHAR
STARTCHAR char9675
ENCODING 9719
SWIDTH 480 0
DWIDTH 9 0
BBX 9 18 0 -3
BITMAP
0000
0000
0000
0000
0000
3E00
4900
8880
8880
8F80
8080
8080
4100
3E00
0000
0000
0000
0000
ENDCHAR
STARTCHAR char9675
ENCODING 9785
SWIDTH 480 0
DWIDTH 9 0
BBX 9 18 0 -3
BITMAP
0000
0000
0000
0000
7E00
8100
8100
A500
A500
8100
8100
9900
BD00
8100
7E00
0000
0000
0000
ENDCHAR
STARTCHAR char9675
ENCODING 9786
SWIDTH 480 0
DWIDTH 9 0
BBX 9 18 0 -3
BITMAP
0000
0000
0000
0000
7E00
8100
8100
A500
A500
8100
8100
BD00
9900
8100
7E00
0000
0000
0000
ENDCHAR
STARTCHAR char9675
ENCODING 9787
SWIDTH 480 0
DWIDTH 9 0
BBX 9 18 0 -3
BITMAP
0000
0000
0000
0000
7E00
FF00
FF00
DB00
DB00
FF00
FF00
C300
E700
FF00
7E00
0000
0000
0000
ENDCHAR
STARTCHAR char9675
ENCODING 9788
SWIDTH 480 0
DWIDTH 9 0
BBX 9 18 0 -3
BITMAP
0000
0000
0000
0000
8880
5D00
2200
4100
C180
4100
2200
5D00
8880
0000
0000
0000
0000
0000
ENDCHAR
STARTCHAR black_square
ENCODING 9824
SWIDTH 480 0
DWIDTH 9 0
BBX 9 18 0 -3
BITMAP
0000
0000
0000
0000
0000
0800
1C00
3E00
7F00
7F00
2A00
0800
1C00
0000
0000
0000
0000
0000
ENDCHAR
STARTCHAR black_square
ENCODING 9829
SWIDTH 480 0
DWIDTH 9 0
BBX 9 18 0 -3
BITMAP
0000
0000
0000
0000
0000
6600
FF00
FF00
FF00
FF00
7E00
3C00
1800
0000
0000
0000
0000
0000
ENDCHAR
STARTCHAR black_square
ENCODING 9830
SWIDTH 480 0
DWIDTH 9 0
BBX 9 18 0 -3
BITMAP
0000
0000
0000
0000
0000
1800
3C00
7E00
FF00
FF00
7E00
3C00
1800
0000
0000
0000
0000
0000
ENDCHAR
STARTCHAR black_square
ENCODING 9834
SWIDTH 480 0
DWIDTH 9 0
BBX 9 18 0 -3
BITMAP
0000
0000
0000
0000
0000
0C00
0E00
0A00
0800
3800
7800
7800
3000
0000
0000
0000
0000
0000
ENDCHAR
STARTCHAR U+e005
ENCODING 57349
SWIDTH 480 0
DWIDTH 9 0
BBX 9 18 0 -3
BITMAP
0000
0000
0000
0000
0600
0C00
0800
7700
FF80
FE00
FC00
FE00
FF80
7F80
3700
0000
0000
0000
ENDCHAR
STARTCHAR U+e006
ENCODING 57350
SWIDTH 480 0
DWIDTH 9 0
BBX 9 18 0 -3
BITMAP
0000
0000
0000
0000
0000
0000
0000
0000
0000
0000
0000
0000
0000
0000
0000
0000
0000
0000
ENDCHAR
STARTCHAR window
ENCODING 57360
SWIDTH 480 0
DWIDTH 9 0
BBX 9 18 0 -3
BITMAP
0000
0000
0000
0000
0000
FF80
FF80
8080
AA80
AA80
AA80
B480
8080
FF80
0000
0000
0000
0000
ENDCHAR
STARTCHAR window
ENCODING 57361
SWIDTH 480 0
DWIDTH 9 0
BBX 9 18 0 -3
BITMAP
0000
0000
0000
0000
0000
E380
8080
8080
0000
0000
0000
8080
8080
E380
0000
0000
0000
0000
ENDCHAR
STARTCHAR window
ENCODING 57362
SWIDTH 480 0
DWIDTH 9 0
BBX 9 18 0 -3
BITMAP
0000
0000
0000
0000
0000
FF80
FF80
8080
A080
9080
9080
AE80
8080
FF80
0000
0000
0000
0000
ENDCHAR
STARTCHAR window
ENCODING 57363
SWIDTH 480 0
DWIDTH 9 0
BBX 9 18 0 -3
BITMAP
0000
0000
0000
0000
0000
FF80
8080
8080
8080
8080
FF80
FF80
0800
3E00
0000
0000
0000
0000
ENDCHAR
STARTCHAR char57364
ENCODING 57364
SWIDTH 480 0
DWIDTH 9 0
BBX 9 18 0 -3
BITMAP
0000
0000
0000
0000
0000
0800
7F00
6000
6000
7F00
0300
0300
7F00
0800
0000
0000
0000
0000
ENDCHAR
STARTCHAR char57365
ENCODING 57365
SWIDTH 480 0
DWIDTH 9 0
BBX 9 18 0 -3
BITMAP
0000
0000
0000
0000
0000
3E00
7700
F780
F780
F080
FF80
FF80
7F00
3E00
0000
0000
0000
0000
ENDCHAR
STARTCHAR char57365
ENCODING 57366
SWIDTH 480 0
DWIDTH 9 0
BBX 9 18 0 -3
BITMAP
0000
0000
0000
0000
0000
3E00
4100
8880
8880
8880
8E80
8080
4100
3E00
0000
0000
0000
0000
ENDCHAR
STARTCHAR char57365
ENCODING 57367
SWIDTH 480 0
DWIDTH 9 0
BBX 9 18 0 -3
BITMAP
0000
0000
0000
0000
0000
FF80
F780
F780
F780
F780
F080
FF80
FF80
FF80
0000
0000
0000
0000
ENDCHAR
STARTCHAR char57365
ENCODING 57368
SWIDTH 480 0
DWIDTH 9 0
BBX 9 18 0 -3
BITMAP
0000
0000
0000
0000
0000
FF80
8080
8880
8880
8880
8E80
8080
8080
FF80
0000
0000
0000
0000
ENDCHAR
STARTCHAR char57365
ENCODING 57369
SWIDTH 480 0
DWIDTH 9 0
BBX 9 18 0 -3
BITMAP
0000
0000
0000
0000
0000
4100
FF80
FF80
8080
AA80
8080
AA80
8080
FF80
0000
0000
0000
0000
ENDCHAR
STARTCHAR window
ENCODING 57376
SWIDTH 480 0
DWIDTH 9 0
BBX 9 18 0 -3
BITMAP
0000
0000
0000
0000
0000
3E00
C180
E380
BE80
8880
8880
8880
C980
3E00
0000
0000
0000
0000
ENDCHAR
STARTCHAR char57377
ENCODING 57377
SWIDTH 480 0
DWIDTH 9 0
BBX 9 18 0 -3
BITMAP
0000
0000
0000
0000
0000
DD80
C180
3E00
BE80
BE80
BE80
3E00
C180
DD80
0000
0000
0000
0000
ENDCHAR
STARTCHAR char57365
ENCODING 57381
SWIDTH 480 0
DWIDTH 9 0
BBX 9 18 0 -3
BITMAP
0000
0000
0000
0000
0000
DD80
0000
FF80
8080
8080
8080
FF80
0000
DD80
0000
0000
0000
0000
ENDCHAR
STARTCHAR char57365
ENCODING 57382
SWIDTH 480 0
DWIDTH 9 0
BBX 9 18 0 -3
BITMAP
0000
0000
0000
0000
0000
DD80
0000
FF80
F080
F080
F080
FF80
0000
DD80
0000
0000
0000
0000
ENDCHAR
STARTCHAR char57365
ENCODING 57383
SWIDTH 480 0
DWIDTH 9 0
BBX 9 18 0 -3
BITMAP
0000
0000
0000
0000
0000
DD80
0000
FF80
FC80
FC80
FC80
FF80
0000
DD80
0000
0000
0000
0000
ENDCHAR
STARTCHAR char57365
ENCODING 57384
SWIDTH 480 0
DWIDTH 9 0
BBX 9 18 0 -3
BITMAP
0000
0000
0000
0000
0000
DD80
0000
FF80
FF80
FF80
FF80
FF80
0000
DD80
0000
0000
0000
0000
ENDCHAR
STARTCHAR char57365
ENCODING 57397
SWIDTH 480 0
DWIDTH 9 0
BBX 9 18 0 -3
BITMAP
0000
0000
0000
0000
0000
0000
0000
0000
0000
0000
0000
0000
DB00
DB00
0000
0000
0000
0000
ENDCHAR
STARTCHAR char57365
ENCODING 57398
SWIDTH 480 0
DWIDTH 9 0
BBX 9 18 0 -3
BITMAP
0000
0000
0000
0000
0000
0000
0000
0000
0000
0000
C000
C000
DB00
DB00
0000
0000
0000
0000
ENDCHAR
STARTCHAR char57365
ENCODING 57399
SWIDTH 480 0
DWIDTH 9 0
BBX 9 18 0 -3
BITMAP
0000
0000
0000
0000
0000
0000
0000
0000
1800
1800
D800
D800
DB00
DB00
0000
0000
0000
0000
ENDCHAR
STARTCHAR char57365
ENCODING 57400
SWIDTH 480 0
DWIDTH 9 0
BBX 9 18 0 -3
BITMAP
0000
0000
0000
0000
0000
0000
0300
0300
1B00
1B00
DB00
DB00
DB00
DB00
0000
0000
0000
0000
ENDCHAR
STARTCHAR char57365
ENCODING 57413
SWIDTH 480 0
DWIDTH 9 0
BBX 9 18 0 -3
BITMAP
0000
0000
0000
0000
0000
FF80
8080
8080
8080
8080
BE80
A280
A280
7F80
0000
0000
0000
0000
ENDCHAR
STARTCHAR char57365
ENCODING 57414
SWIDTH 480 0
DWIDTH 9 0
BBX 9 18 0 -3
BITMAP
0000
0000
0000
0000
0000
FF80
8080
8080
8080
8080
BE80
B280
B280
7F80
0000
0000
0000
0000
ENDCHAR
STARTCHAR char57365
ENCODING 57415
SWIDTH 480 0
DWIDTH 9 0
BBX 9 18 0 -3
BITMAP
0000
0000
0000
0000
0000
FF80
8080
8080
8080
8080
BE80
BA80
BA80
7F80
0000
0000
0000
0000
ENDCHAR
STARTCHAR char57365
ENCODING 57416
SWIDTH 480 0
DWIDTH 9 0
BBX 9 18 0 -3
BITMAP
0000
0000
0000
0000
0000
FF80
8080
8080
8080
8080
BE80
BE80
BE80
7F80
0000
0000
0000
0000
ENDCHAR
STARTCHAR char57440
ENCODING 57440
SWIDTH 480 0
DWIDTH 9 0
BBX 9 18 0 -3
BITMAP
0000
0000
0000
0000
0000
0000
7E00
6600
6E00
7E00
7600
6600
7E00
0000
0000
0000
0000
0000
ENDCHAR
STARTCHAR char57440
ENCODING 57441
SWIDTH 480 0
DWIDTH 9 0
BBX 9 18 0 -3
BITMAP
0000
0000
0000
0000
0000
0000
1C00
1C00
0C00
0C00
0C00
0C00
0C00
0000
0000
0000
0000
0000
ENDCHAR
STARTCHAR char57440
ENCODING 57442
SWIDTH 480 0
DWIDTH 9 0
BBX 9 18 0 -3
BITMAP
0000
0000
0000
0000
0000
0000
7E00
0600
0600
7E00
6000
6000
7E00
0000
0000
0000
0000
0000
ENDCHAR
STARTCHAR char57442
ENCODING 57443
SWIDTH 480 0
DWIDTH 9 0
BBX 9 18 0 -3
BITMAP
0000
0000
0000
0000
0000
0000
7E00
0600
0600
7E00
0600
0600
7E00
0000
0000
0000
0000
0000
ENDCHAR
STARTCHAR char57443
ENCODING 57444
SWIDTH 480 0
DWIDTH 9 0
BBX 9 18 0 -3
BITMAP
0000
0000
0000
0000
0000
0000
6600
6600
6600
6600
7E00
0600
0600
0000
0000
0000
0000
0000
ENDCHAR
STARTCHAR char57444
ENCODING 57445
SWIDTH 480 0
DWIDTH 9 0
BBX 9 18 0 -3
BITMAP
0000
0000
0000
0000
0000
0000
7E00
6000
6000
7E00
0600
0600
7E00
0000
0000
0000
0000
0000
ENDCHAR
STARTCHAR char57444
ENCODING 57446
SWIDTH 480 0
DWIDTH 9 0
BBX 9 18 0 -3
BITMAP
0000
0000
0000
0000
0000
0000
7E00
6000
6000
7E00
6600
6600
7E00
0000
0000
0000
0000
0000
ENDCHAR
STARTCHAR char57444
ENCODING 57447
SWIDTH 480 0
DWIDTH 9 0
BBX 9 18 0 -3
BITMAP
0000
0000
0000
0000
0000
0000
7E00
0600
0600
0600
0600
0600
0600
0000
0000
0000
0000
0000
ENDCHAR
STARTCHAR U+003d
ENCODING 57502
SWIDTH 480 0
DWIDTH 9 0
BBX 9 18 0 -3
BITMAP
0000
0000
0000
0000
0000
0000
0000
0000
FF80
0000
0000
0000
FF80
0000
0000
0000
0000
0000
ENDCHAR
STARTCHAR char57503
ENCODING 57503
SWIDTH 480 0
DWIDTH 9 0
BBX 9 18 0 -3
BITMAP
0000
0000
0000
0000
0000
0000
0000
0000
0000
0000
FF80
0000
0000
0000
0000
0000
0000
0000
ENDCHAR
STARTCHAR char57584
ENCODING 57520
SWIDTH 480 0
DWIDTH 9 0
BBX 9 18 0 -3
BITMAP
8000
C000
E000
F000
F800
FC00
FE00
FF00
FF80
FF80
FF00
FE00
FC00
F800
F000
E000
C000
8000
ENDCHAR
STARTCHAR char57584
ENCODING 57521
SWIDTH 480 0
DWIDTH 9 0
BBX 9 18 0 -3
BITMAP
8000
C000
6000
3000
1800
0C00
0600
0300
0180
0180
0300
0600
0C00
1800
3000
6000
C000
8000
ENDCHAR
STARTCHAR char57584
ENCODING 57522
SWIDTH 480 0
DWIDTH 9 0
BBX 9 18 0 -3
BITMAP
0080
0180
0380
0780
0F80
1F80
3F80
7F80
FF80
FF80
7F80
3F80
1F80
0F80
0780
0380
0180
0080
ENDCHAR
STARTCHAR char57584
ENCODING 57523
SWIDTH 480 0
DWIDTH 9 0
BBX 9 18 0 -3
BITMAP
0080
0180
0300
0600
0C00
1800
3000
6000
C000
C000
6000
3000
1800
0C00
0600
0300
0180
0080
ENDCHAR
STARTCHAR char57584
ENCODING 57584
SWIDTH 480 0
DWIDTH 9 0
BBX 9 18 0 -3
BITMAP
0380
0F80
1F80
3F80
7F80
7F80
FF80
FF80
FF80
FF80
FF80
FF80
7F80
7F80
3F80
1F80
0F80
0380
ENDCHAR
STARTCHAR char57584
ENCODING 57585
SWIDTH 480 0
DWIDTH 9 0
BBX 9 18 0 -3
BITMAP
E000
F800
FC00
FE00
FF00
FF00
FF80
FF80
FF80
FF80
FF80
FF80
FF00
FF00
FE00
FC00
F800
E000
ENDCHAR
STARTCHAR U+005b
ENCODING 57586
SWIDTH 480 0
DWIDTH 9 0
BBX 9 18 0 -3
BITMAP
0000
0000
0F80
0C00
0C00
0C00
0C00
0C00
0C00
0C00
0C00
0C00
0C00
0C00
0C00
0C00
0F80
0000
ENDCHAR
STARTCHAR U+005d
ENCODING 57587
SWIDTH 480 0
DWIDTH 9 0
BBX 9 18 0 -3
BITMAP
0000
0000
F800
1800
1800
1800
1800
1800
1800
1800
1800
1800
1800
1800
1800
1800
F800
0000
ENDCHAR
STARTCHAR U+005b
ENCODING 57588
SWIDTH 480 0
DWIDTH 9 0
BBX 9 18 0 -3
BITMAP
0000
0000
FF00
3000
3000
3000
3000
3000
3000
3000
3000
3000
3000
3000
3000
3000
FF00
0000
ENDCHAR
STARTCHAR U+005d
ENCODING 57589
SWIDTH 480 0
DWIDTH 9 0
BBX 9 18 0 -3
BITMAP
0000
0000
7F80
0600
0600
0600
0600
0600
0600
0600
0600
0600
0600
0600
0600
0600
7F80
0000
ENDCHAR
ENDFONT
